<mxfile host="app.diagrams.net" agent="Mozilla/5.0 (Macintosh; Intel Mac OS X 10_15_7) AppleWebKit/537.36 (KHTML, like Gecko) Chrome/134.0.0.0 Safari/537.36" version="26.1.3">
  <diagram name="페이지-1" id="lyWCqqU_TwHr_jNPQsyi">
    <mxGraphModel dx="836" dy="1180" grid="1" gridSize="10" guides="1" tooltips="1" connect="1" arrows="1" fold="1" page="1" pageScale="1" pageWidth="1600" pageHeight="900" math="1" shadow="0">
      <root>
        <mxCell id="0" />
        <mxCell id="1" parent="0" />
        <mxCell id="j8tZx5eY9eRbHfg8dXLW-5" style="edgeStyle=orthogonalEdgeStyle;rounded=0;orthogonalLoop=1;jettySize=auto;html=1;" edge="1" parent="1" source="j8tZx5eY9eRbHfg8dXLW-1" target="j8tZx5eY9eRbHfg8dXLW-4">
          <mxGeometry relative="1" as="geometry" />
        </mxCell>
        <mxCell id="j8tZx5eY9eRbHfg8dXLW-1" value="" style="shape=trapezoid;perimeter=trapezoidPerimeter;whiteSpace=wrap;html=1;fixedSize=1;fillColor=#f8cecc;strokeColor=#b85450;rotation=90;size=18.75;" vertex="1" parent="1">
          <mxGeometry x="300" y="420" width="118.75" height="78.75" as="geometry" />
        </mxCell>
        <mxCell id="j8tZx5eY9eRbHfg8dXLW-2" value="Vision Encoder" style="text;html=1;align=center;verticalAlign=middle;whiteSpace=wrap;rounded=0;" vertex="1" parent="1">
          <mxGeometry x="329.37" y="443.13" width="60" height="30" as="geometry" />
        </mxCell>
        <mxCell id="j8tZx5eY9eRbHfg8dXLW-8" style="edgeStyle=orthogonalEdgeStyle;rounded=0;orthogonalLoop=1;jettySize=auto;html=1;entryX=0;entryY=0.5;entryDx=0;entryDy=0;" edge="1" parent="1" source="j8tZx5eY9eRbHfg8dXLW-4" target="j8tZx5eY9eRbHfg8dXLW-6">
          <mxGeometry relative="1" as="geometry" />
        </mxCell>
        <mxCell id="j8tZx5eY9eRbHfg8dXLW-4" value="$$O_t$$" style="text;html=1;align=center;verticalAlign=middle;whiteSpace=wrap;rounded=0;" vertex="1" parent="1">
          <mxGeometry x="440" y="439.21999999999997" width="40" height="40.31" as="geometry" />
        </mxCell>
        <mxCell id="j8tZx5eY9eRbHfg8dXLW-13" style="edgeStyle=orthogonalEdgeStyle;rounded=0;orthogonalLoop=1;jettySize=auto;html=1;" edge="1" parent="1" source="j8tZx5eY9eRbHfg8dXLW-6" target="j8tZx5eY9eRbHfg8dXLW-12">
          <mxGeometry relative="1" as="geometry" />
        </mxCell>
        <mxCell id="j8tZx5eY9eRbHfg8dXLW-6" value="" style="rounded=1;whiteSpace=wrap;html=1;fillColor=#dae8fc;strokeColor=#6c8ebf;" vertex="1" parent="1">
          <mxGeometry x="520" y="420" width="80" height="78.75" as="geometry" />
        </mxCell>
        <mxCell id="j8tZx5eY9eRbHfg8dXLW-7" value="Policy" style="text;html=1;align=center;verticalAlign=middle;whiteSpace=wrap;rounded=0;" vertex="1" parent="1">
          <mxGeometry x="530" y="443.13" width="60" height="30" as="geometry" />
        </mxCell>
        <mxCell id="j8tZx5eY9eRbHfg8dXLW-10" style="edgeStyle=orthogonalEdgeStyle;rounded=0;orthogonalLoop=1;jettySize=auto;html=1;" edge="1" parent="1" source="j8tZx5eY9eRbHfg8dXLW-9" target="j8tZx5eY9eRbHfg8dXLW-6">
          <mxGeometry relative="1" as="geometry" />
        </mxCell>
        <mxCell id="j8tZx5eY9eRbHfg8dXLW-9" value="Subtask&lt;br&gt;Embedding" style="text;html=1;align=center;verticalAlign=middle;whiteSpace=wrap;rounded=0;" vertex="1" parent="1">
          <mxGeometry x="530" y="330" width="60" height="30" as="geometry" />
        </mxCell>
        <mxCell id="j8tZx5eY9eRbHfg8dXLW-12" value="$$a_t$$" style="text;html=1;align=center;verticalAlign=middle;whiteSpace=wrap;rounded=0;" vertex="1" parent="1">
          <mxGeometry x="640" y="439.21999999999997" width="40" height="40.31" as="geometry" />
        </mxCell>
        <mxCell id="j8tZx5eY9eRbHfg8dXLW-16" style="edgeStyle=orthogonalEdgeStyle;rounded=0;orthogonalLoop=1;jettySize=auto;html=1;" edge="1" parent="1" source="j8tZx5eY9eRbHfg8dXLW-14" target="j8tZx5eY9eRbHfg8dXLW-1">
          <mxGeometry relative="1" as="geometry" />
        </mxCell>
        <mxCell id="j8tZx5eY9eRbHfg8dXLW-14" value="" style="shape=image;verticalLabelPosition=bottom;labelBackgroundColor=default;verticalAlign=top;aspect=fixed;imageAspect=0;image=data:image/png,iVBORw0KGgoAAAANSUhEUgAAANIAAADoCAYAAACaeLqJAAAAAXNSR0IArs4c6QAAAIRlWElmTU0AKgAAAAgABQESAAMAAAABAAEAAAEaAAUAAAABAAAASgEbAAUAAAABAAAAUgEoAAMAAAABAAIAAIdpAAQAAAABAAAAWgAAAAAAAACQAAAAAQAAAJAAAAABAAOgAQADAAAAAQABAACgAgAEAAAAAQAAANKgAwAEAAAAAQAAAOgAAAAAbd+1IAAAAAlwSFlzAAAWJQAAFiUBSVIk8AAAQABJREFUeAHsvdmPpUeW2Bd3y+XmnllZK1nFZrPZ7G00kjXSbBBkG7CkJwGS4XcDfvR/5Fc/CPCLAQsQDEnWSJ4xZjTd09NNNnfWXllZmZX7cvPu/v1OfN/NW1lFstisKvaQGVV5vy32OOfEiXNOnKj8b//7vxm22+2UKpU09F+F22H6jgYa/zsRHIBn1WX8/fj9N13p7yzApMpgkP7X/+V/rlR+/Cf/3XBt81HqV2qgUTXVa5U06HVjGPuVaqqlQRoO86CBa8SpgGhPdhxvAgnL4RQEIkaBnPHMi4rPpI18iiyqxcN4jpRoKUV2fjl9KsuIa/50+qpMUr4Z1fP0w9m6GtV31Vo1VavVMuU3e40+si7jvVI80pSy2We+fjN1tj6DYer3ekKKgxyEOCDCbpcyE+I27oqH8v5zrqav1WvR2D75D/gzjzrjZLDt/UE/yqs6fsCqb3sAdhkqlC14DezP4mXZZ8+CgzLd6FomKl+YWJgyU4K/VZ63P/lNpd6r1VOt1kxD6lxbup5uvPUH6fav/0NKRxtpAHIJ6BONCSpNhfp9GsQN74ierwBfn/e1Rj31ut3cQr8RKja6WolOrtVASTNhuhNgM1INotOdCe2MMlRBZv8NhgyNHVjU3XdlME082jheR/zcx2UUezA1p6dT67iV4/IldzhtpT69fi/qa12miPe7hEj2x+zMDH07SHIMttdxELgcg26nm7pDAOl3IFifduskAzZjsLq4FOO2c7ifej3GuOj3TJAZlrPj9Iw2zE1Ppn/w938/3bx9Jx0cHqf9w0PGqp8uX7iY2icnDGA1mX+X/lleWk51EGmi0UgPt7ZSFzhsTk2l+eZsakxMpO3t7dQijfUYwwMhKN6NFy8MTDWnI492tzP+idmHYgO5M+w5NsOquYDgk1RuMDWRFt/4o9SpLKXl7/0o3bn7URoerqfGsJdmFhfTpcWL6fj4ONXrjbSzs52O6TQJzcxMM83NzdFpg9SgEV2o0tbjrYxQZH714uXU6XQCgSdoUMlCBlKRRuCXqnQB6N3d3Xi2IVdWL6U+SNTvSXH4z7vDo8N0dHgUCGjFp+ioWr0OhapRt9aoTL+VYXV1Neq3s7OTDvYPghBUQOxFBtr029tb6YS2GMrZskz7TV4FuBptrtOnw9RNE5MT9H09LS0tBbLblk6jm9oH+3bPNxICCAvKHBVwnLiZA3jfeO16QGz/zq10AlA3GpOp1TpmjCBczxmmJyfTz975cbpz626qAcANiHqP3hCQhYOZxXmIYT11eidpkv45OWqlmelm9BvkPGB1GuI4OzcLEh6kCogkMXKcm8Ct47+3uxeTwHiVRDwR0jzbO08iUjSQRr7++utpY3MzcKJMW+/YGb1K6h6sp/nXroBy8xQW9D56RsDeB4gX5ufTwsJiOmodpeMTKDzBjrNCzloCtZUd79tjOu/qtatBBQSEHojWgbq22ydputmMGapP446Pjkm3F7OD1G0aStw6OU6rFy9CeTsxW9y+czsdV46jXH/aJ23YsW6wimQhJvCTqYPfDXv7+6lJOSUS+c78j46PYqbsMZOWneO335XgbGS9HXT7TAp76SLEhfqedE6iz7tHzqa0d7zDX2EDorfpS0Nm1yGL1OXy5UswAnAo1VqanZ1New/XqWM12vHVqgeXApGMWQziJwFMvWH60z/50zTJzPzo8Wb6z//fn6d2x2/VIObj4y/cTkpsqYdEPJAoBjsF8TwBVmUXzwbbML+wQL7IDc4EuaPmXDOdAMNOBrn/c6TK2//0nw0fP9xkjQS+z1xMV2/8LD38+C9TrXfMDFVjyuzBWtlJsHlMpwKiLF7NSlGoFbZw33t1sKMAv9f9VszjDLrpnQ6JFh1k2oGzjghgm4p2Det5LRV5m4+fI9+xlhV5UDM+S2nI66yUxDKjsJwu2EQGRPZOtjECeRtlEurlgHy1UFR4lIiMngpn4zwVgRdn0lHvqYnJIDrRJ1SwKiDx3tzsl77jcLa9z8r6ud6dKf9z05xti72fiZOErT8AuenCi8srMWY7+3twKf1giYSNMjwPa9eAZboEIW2T/vj4BOLNjEL+V2DtGgBxCwK7tbfLmqif5iC808x69s/2wUH0TR0EavBnDeV4BsQTjqMHqYr1ER6eFQKe6O8CQk6jCE9jY5VTD9POh7+qVH7yT/7b4X3Ysf5wmim0B+LA66ZGjG3fZBUAPXKkhyjY7rBPKiUglsVEP/lzWjkmYpLk6TRHY9EYg38ax/eRJ78ZTHIOJYLkdDE+YzkzcbKoi9LIP3JwFg1kop7cV2P9EF1SZhHXylBksR1FXcvkAKdsoq+LVka+o/GnnLLWOaXlne1qv5wNZaqz70+fK8M6D2PxuHWgLTuaF99y+QEAAkQU9fys0mlpz7ijT3J/5DKNUa5nLMYhG/Iz+Jz2SkRLAmq8AFgrHsgPESD/ctaylYKoIGlw1Mu2e5f73zLz++FoACSAxCxgMMfl1wpG1HgTZQ9AoDyGgxCW5TGnpJgQLDGv23IKC83ty3f8kqdtzoiXnyNudMQoVoxBjfrsfPi3lXpz5WIa7LVYNDXgQf2bIkLRyLKk7knqwo6Zj1KKqHi04DTTfFcmKN/LrY6HEpHG3/1292fpRfSnHTA1m2rTs3QVQE6Fc4eellHNEHj6YuzutLY5VbSmbJIFEKIcruZ8Osjxqfha3pfXMoPy+elr7WwUnstXUSw/A/7iHT++8893LyLEuBYZZcTN+VtIWQ+vT3fdl1fAvMtcytsurFG/34FwS6pzCYJ8GTOneUZ5Rn2iSF48UeGcpjY5kyrM6MgSSSAkiFinQRgwG//ivdkA8uNxyjoYSXJp28t+GsXjphZlwHzNzF1IvcZm6rrGoVJivcUr+I7UFsrU2JW1ItegFObEX1SH+EG9fEdiHvNzxC4oti+LYLQXEeykPLeM5Qb1kidOM/N8jYrl1ueaRsSo/ymppxnUmTRS1ZgCiFXOZlY72sO1R5q6/UMD+rTTltnaElVzu6zRk33gdzlGxzvy4sa4MeNwNShYGQ/Gi0heeYj4tDYQh9GsuAYhSde2mu+IaudyThPTFupq2YbiEusJ2diybUEc+epzlF3EjfjxMr8dFAAoWyx7LIUv+0wg81FWupzNTF+Ntp22z97pDWS/YLeqwJTpBHTaEgDOs2M0tN4WW/QXd0+00+ecOM/KudcdJ1i6But2iKmNsa7KmBWI5fkBEbkfeKj2KYxyXKdzU/QA/UAbqsw0df4CyPxuXqTp8i7YbF6IopVBJr91KzyIxiMZoeYXECr0ep20e3BMQxsBrjJRMS1SXDltj2YEy7DB5gGFsUTuuEYzqS8fHUm/W3hEjs9f60egDiAlF9nHHKwIAMK4RWkOBm+cyqOjolOthe9P06gvs0OjnsSMZ64GczQYvwbZmkBSdCwQADm1AOocw2YF2xE3BVDyLnQrNt8yqWcJ2FFn00TfZGqcS4qussAIGZhSWqnOpmMEDSd1ZVfmH4x3pqTkkZFJ9id/FbBtk3XKZfAc5YOQgUTG8x115NlqGKI18cMD7+pUICRm0Wb70TKMUJQZ9c/ttMzAm2KMjRWwJVEuQk5pRAsEHmrTkHWEAf2joj6576IiRI7WEDfgtKxkkVcMGWMX5UTBfogU0TsS0xr/pmpTIC7CAwjQkKXKQN6rOpEuLq2E0IL1jMmAbZGN/mEdf+P6jXRtZTkEC/fWHqRtpNU9CpT9tz/9538JrIEsLG6QZqea6Q9/+nsIGTrp+o1rIZ//P//v/5gOEFkGB02HxuCQeB5kW70wkxqIw2VvWi2keGSumLbBzEYUenCY9o/b6cGDB9RQMCpCQEb58Ntfpykri4gBbKR+nVAIIqkB0BdmYE/5V0dUKs8eYlL0LkM66jpSxEePUEDTWUoPpxCZoupAGoY4mQWsgxuz2WmNo5I16j1bm0wXUAc83N1Krf4J93MheLG99uf+QQuJUj1NIboNgQyd3ht2Q3Tt4HSQvtkPimV7LsKtIxKotS3E2MWARGFkGHn6EJ05TD++9mZ6/9MPUmN6ggkXwECqKWNhdzo7HCFZnUHSFzo92l0irpKpSepziAhYPZQVUI1hUGChZFMqK6EZD45rnX6ZJc2FucX0eGcjHfW7aYn2S90lCK0T2DNmEvtZYY+51IivmuOI8izM+SDzDjl32++MLwdQJe3V7/0w3fjhO+ndv/r36Xj3IK0gMfv+G29Q3lbapW72i1I31SibqDGCKOSsivthWkSa/NOf/TR99vEnaX1jE+QHYQKxyP/atfTjH/+99De//Ku0t7OJJI8+YNznJ+vpe5cvpvmperr5aC1NTyDhA3YOEFZEGSDeo+2HjOkBS4VG6ux10xz9yDwWY23fKb2TQ1GBwioXCsBi9/fefDP96Puvp3/zb/9d+uDe3fSP3nknzc/OpIMd9C+23j8SOXBOhQNEkb4/Oj4MCqV4+wTpSmUKCkPjFduq8LQjTCMti+DDCwiZNpJvSXGpkwu/6Yl6WkRPULGFSAmHTPUOcNN6cVelAy4sL1O/Lp1WgyAsh3LzqN1ND9Yfj2ajspZBeSKlqXPnKTafIO/XLrG+JD+BN/RhtHlhbj4tzy+kAfk1QKqjfgvA6gRiLdCfdEeoEiQ+oVQVuXhXlnfaNdaa4IWPR230MJQvvW5A/haXF2kDn6Cgisf7tOfShRVmydwz9ru6P+MIsFMA2zREAyiJWUreYZex64s/9Jsgb4ji+Kmoofc5ym6ljtQaRfmli6uspKupg/5ta7CVLiKW73YBKMqQGKXJZmptIlq2Uabn72zbgjWmXOsoQWsdtRHwNlOz0U9vXX+D9lXRQa6k5YW50A05Bh0I+pZ6n0CQyDr/0B7bv729E4BtD/UZ+1Dh0Bd9kGrv6AhQgMCB5ItTk2k7JIzgE+mUKlaFEfqxDsLmGTQTp3mQKzWH6RCJYQhMKFHYd2Kxt2xbDB4XZ+5oqdYEa+vrAQh9EGJv55DI0kx+Y3B8yomPoX7ryNn7IIrmG84M9pvDMRzuhIxdiiu6Fv1ZlEoGxYB593VCi/JjvUOp9GW0weYdQSUe7R+ixuRl0elSS1titI3t/QL5pIgABLNBGyC1ezpQWTvSmfd08G0TL/h2TH6dkyPUAmQEm/fp/Y086/FdhG7TmVsoC52JJyEsbSj2CSyR6e0jCFo6QQf3aFcAz+/tA4U71u1ZId5Tp7s7a+mk1g/EaG8fBDA7Zs58sd6hfncgBJajbu8QSwAR3PRyCer5kCGHkts0fdrQo16uF1wj2kSDTRNIoh+4OWKMO86mfOgDjLcfPgr2tgdxMH2fuqiXs49DJF9HWQzQB3tMGiVm5nk2BNyxvti693Ha26RtzGB12vDRrc8A/l4AvrP4AjOgukRn81MWPudW5tuCYHz84YfR1rDGcX6ImaOaHm88SofAwzH9USP/7QHsMXXqgfS3H20w4zD+wLci9ioIJptrZ6xv76YjuJ4Oy5UDdKd9uItDCcVYa0Q+16uGQCQbJQ96++6ddAOt7e+/86P017/4ZdoGkwVAqbhAmwGXN2R+3M4UzEzG7Zt8ZiqKS5WOIOcoumz05wFMJPgqP9Qno0ZOFPw5hSgUaYFM8q7WPdf5NOMuHXwaKlBRFW8h4wtKY8c4mZk2QpQjggFIvHIZaH+Z+xEDOKIUfAtx+BDkoWxUvhJ6ci5bntlHB6kTA5Kz97ceoHv6HHfEy0lJz+1BB86gLtEAYBlPWZcslSrSjQiA9ULnUhAR+0iLk+AMjGq+lBeATAGisH9BK/1sHEKlaprchg4vo80iFmz0UZTluEJ8untkmVP5O+zm+5jPuKW2kX9+m5vUJn6MDi+HzGZdTHFcy5h0C7Mf62itqETaYeazB6OIohzrZ4g8qYvQJhLnd7KtMmAk512VAesdtCE8jCEKrI4KXNKoNN7dh1Uk8yzJzX1QjnsL4nByDJsX3Q8hND/+bGtcufemjC8bbLcC+4P045/9DMxrpE8e3El/+e67qc0Uq064DuZNwJYwjjyR1FoWA5WzN1ebNSrCF4RxoM1vXtRvdNRYZpYuoHepa1+TELEh/lun09CPhd7pc0DLqC28p6ME/gxo+dnYDnwoEi2I4Jj2hbSxMNI78M7BzXkUCYp4T6bIL8cJQryJJEW6oow8fDm1X/w72xRr/vTL04V+Ls2EGejimYwAt2e0t6gVRVpWJgj2Qn427TPn0VHHGSPD1lN9jjrF9vQRZlmTUrKXlxAICDKAUZBU67S8yPBLfhRHDzutYOlEMRFG9t6QgT43yGo6RqNAmbazDOKE7OEoRD0yPJdvIw/rSKiXg/83776Xfg3y9EEep9QBrIAZSVUVKjThLScZ1IxI1dQEqxQulNrhbfjXUv9UFh5UpXx4wdfQvZQtIm9v+7AoR8yG7ZYLXcCDly4gQyhCDFmECnWeoF+PWaPUJmfThavX0/ajB/D88NEg1FQDUThd7iwrayT7F1QIzKmHboIZhRnP8uwbEXGET8VglMCmoOMsGPjNvzI8HaP8cvYastOcXYkIAXCn8QJQym/l62KtM3q05tTrCRihQo5rNKqI+ARY+cmKFoSxxJUCGsqs87X8WLz18SyhCO4m2Fk+8jWvp6IAhy0KM+/cf0VGcTH+2fDkO/MORAJZIX1EtvSg/NHv0UdRFOly8ZGheBDPEZ9URQdF7kXVcoR4E2lMklUHIFKvQ2G8AExiXeGCtlLJmnYBMS++4O9ZqF1cXmCBfpyas/Pph69fwohyMYwRlTz9u3//H8Dw00IsKSodRb74n5EAZCxrB1v2ShGnvPnMzHRanJtJixh7duHpN7HP2mt10qVLlzDMvZcWLlxJP/kHf5jufPjLdOujD9Py7HS6tLJEvStp7+AwpJFKqeTN1x+thyGj9luPHz+O1olsDhWdV4RMt32wJ8aBtYjw1CXiPfX2WS/G6OdYeU/FPAPIGTJPY8UIjdLn99bzC8cqvhs3Wvsl7Xoy85z3aflFifSZqDvWJj4Ib3bmaROehKecdvz36e85LagjMERwNMt7X4yleeJ1fgiCErF4HuURGRVpTxOZU55NQaSd3Z3I2zQltmauKBfor5XTpHybuO0Oa5DuID0A1+7cux9SKyV2cpEvcwYqmzK6nrZn9CrXePTIwryPSTzWvyCFdVQw4uyxgUmUHXaw/Tjd+eT9tLm+Rp8NYsY5arHgRAKmqNhFupbAU4iVbz+4lwbw18eKPBH31mGBhwoMWARHVaIDT2vgne/jaqHFoAR/DgJ6/bwQaYzPbDieTrHz6fT3OanP1ONzYn23Xz+jj4L9ZEwqUGjXfhmbv8QEywGOwWdYfvDP/tXwzq7yepBBaQ4q8/pApBDU8mBPIumYhMo3ALYwt4Daq6odD8FnF/HH37/Ke2t8jCToSBaOOkoNQwtNxwVwUpkeUrTQytNZA6RQKowHmKsoW6oJ3ACrbI23xtPK1ziHLIqjN8gzK5khO/J2RnRgDN4XIetaMlvo12yAa/YgkeziFyFFkV/EK/MmD3N3dvw8JCzzNF6USX2KmvHmPNhv0Ud2xdhY+RjrXeBboUTIAuhE18T2d9mvjKJRI5Rj4IzUfv/n8nB58AUKgW4WZevy3HLa39sbKacUPR4e7IQERCVgYpHoUm1cHCkWl4LO0txGcWMpTSnLKerx4i8CnP/RI1WVM0eg/ICkTBJs/JTKPWYqX1cRsw7RxsauS1+AOMEyMiU7GXQEdtdJImXR8V5EigHpAsl44RrKv7I/FEGr0FQk7p4ixc0G08Wai3xDvFzkGVWMGPnHshRXO4DmaX9mFYOja155zExusw2RVaEzyxbv+UNmxnKKqGeO/p38lSux54Tns6HCVqIhXFdzfjLNT7PPqQvnNWSPHXG7RSefHafIo3gZUjspt1PbfJP1RHMuPVKfhIbZPUMq9ZydNBFyHeWibH62mZYxXb+19jCUWIvsKJSFmp5spFq/nR6jHOtUJlFYLqQ14qhXceOFwoi8ADzbjBfz7Lo6QKxo3PhiX4BsopC8fuVC+uTmHQp0HShwkwaq4mY/AdhNgMusqexsATIAvwBmszV/B8RdmvZPiWCykZqRCPCuzURd97y4scxNi2rn1YkM0LG4k9hNi3m/DTMU+amTcwa0AJWUi8R1M5xWAgfoQJbYmtDRcFhkFOFBLhW+XS1PUA47hr6TFVVIYr1U+EocQ89EvVUCt3n3JC/Bh295cN1s/wjBLlscQ8dyPLhtsIvtn1K+Rq+WpokwjYK4Tf+1SNGGcIp+Z9OVlEwro1HGUlh3MYqFDoqDERIrIxmrwMw+1xqiLwFtBaD7e2+/7Z6rLBZvH6WllQtI/5rp4uIUYvV+2r95D4g1j6eq4csXE6weOY3aE3XmRVGkj/oV6ADc0Qzr4zcfaIeWDipJ3bcioPdgDxUsiDS+d6Ods7SzyxCk0OzGXcGHmpSQTalgtc8sK+93yjOVfShwt9DLiRjmyySHaU62/miy5rIeWg7E7ANiHKgopK4++03LBcclEIXBthz7n/8ACcpg6ltHQmn9VfqW4zWJtJWpLcZBomD8sk+4+/YH22uIqyx++SK/Lj8F1wGx78KkteC4anArzkqIBJJarh7Ey3F8KhTZZbLMVwdFqqmPA6VaDrgU7OliUSzy7dbavdCKH6A13kSKte7WWzTDFSogizRkMf5ZFfMPFGpazRqkCN9kENjdIiwk5Q4V0H3CDASqH6wZ/eAMYLvLWck6+10EswUqOAVKRejhP4A0JWAL+CpqS148EI1CLNuduiq+3WgWg0I6r2rZ45k8rVCwhr53ZqE883ZbNJcseueb5Ts+JetcEj7j2o5y3E5gV8YBgE/m6M95GPVAAZlQtwFsTRfToJbENCw0sOqAEMmKux5yDAxesoQwHgv+hnsNUZ2R7ty6nXpcDc/qbgdJal2JnbMNgOk4/eqD38SaQK17UUSkz2NmLvz58KwMI+ar+ZFQTE8M8SOA5YOdEhUCKAtEV0onQGrhK7KoiBYhdLChNYdAanBGdoYJvRRxBepyRvJ7CdSWJ3tn76tlj/T0QwMhh92hIaYdE4SGOBPkZRqRw5lQttp7e9U1rDNgNqx1xsv6LOs6QhyQ1HY9ETLmjF6VdRi9OL9hBBgNiP6QcVbgpAypw08HNkvBkk58HD+/x8DRZ2f3otVjcc0HB62FtS1QEQMvZXSwnwxSXpCONZILda2dqyhrTeKAavyaXScJNAAIIFBHwStL5YJe3j8vwjNQOqgCq+sDMX6AZECgeCnBihNWVy+nnf1btFHwJBTXFdhRReBbW9tp/sJS2mddM6Whq/3A+xn8D5QKWhFFJJJF897Ze5++u4CzFUtRUOD7QEza3GFWcE10gMXFIgRroo5onfWN6ypZyk3WVjOsTxcWMXYFQbfxhBO+JmAbZSGjn8jTumhHJ8Fz1prg/oRZybWWyOxarE1+ln0evloPDN0bBY+lMEfVd6ylYLVjawXjD/gm+OpApCBGxgZuyxCIJOj2mcYA5QIBeJPhLuIVIBf3wqOm8z+4+lr6xQfvAUyTeBlajcIbWA1IgTsoP7V6cIBnZ2ZhQaCsAFSb/TQTAEYYtJKb2K7bpQ72bidg/xaW5ofocZ4wzYhSX8BPAYT7+1jBBVIJbLRMIQrPLdjSYN1oehfGuAprqk2cM0MXXnkKAJe9s1ucGWSXZK0MeWbJa7DyvXG0gKiRz+ERfUIbSRLsb6vCewBfa2PjWI8QVmzthKMXCdARXnHEBzfTufaRnZ4sZivHKySpED+/1RAZBSvJh4n6ZIxBOdjW7zx8eQ9kbgoCiORzoCqI7S8J64gg7AURFg/sZ4U3ERyIIuQ1UoE0Xoo05fdnXkWKu/fXxFuArscgd4MiK5XKAAP7R0oHudPdjco48EHJAQxZKbcdyA6dYBw4MTkFgGUL36Iqzyz3a72kYXsIC7Rmzhxo7gxoTiBFiSQC4J5K6jNhc5Pt+LyL+oFAIkx0qNhB8DdcipH+dE0SPcozH4uGhX81KJzlDBE+RGDwnNUMEiLTK1hwMES0jGz0qWs0y+W9mUa2xb1pLSdLRn06D79ND5TwYN8+HYq+50MMZzGmxsuIFIPjQBTJxyI8lRlRXEwfy6YxM/WYSTZwwCcPfwJLEgNtIge4CJFvMeBR0Xgvy2SFrNwRyEb5vj9NVqR+QRcKk026uHQx3X/0sABGy7PAKLn4/eLycsycbtRfRRK/nX0Xn860yRlwlI8Ryn6PyPyM9135LqIV9RyL/0R5ZbryOpb2/Pb5esD+DCLHVXY5xqLob2F3FHw3xkGPpHal2f1Y1FGa8qakhAJeTHlB2mFpiBDAMSqQF0yBvhsFvvl0dluDbIwy/ghF+vH6Fl++9sXZQyGBa5Q19qhY57Hafe38zzP4dvSA6oP9vX0gXCEU66CCC7B1IlIJM3EtH/hWz7ZFaPxZuN64ejW1WAc8JiMRRfu6EsbLbvL90sISbmkX0qe3PksL6JGak7jyogj5ftm3WbZcqCj8lG3mIZ4tEaTM5MzVMoJGj1XsTJSv/Shv6yJ97eHDYCsRxUSeojdfIDysEamn7KpGr3kHiiwYLBYa7tRH8FBVyoboGwJSQ0rTbSBdc4ccoYs5emWAbZ7WEopZYGE79IeecjQ1yX4gxohGpPqqP1/WQV/2/auW992Ib68htMvElTWxljG9gH2goJItU4QfRu8J7mEcrFHI+jFLzIx8wsat66+9zua4k3Qfpw9S8TKU056+DiqDOVOyVXslXBMrEncrr4ijQlAvm/c2Nk59LpeZnLmeYXLOfH2Bj8yOrj/CUeD4TKmABfvCCgDvLk9k/6x9eNbXnBpxEAwPHSjoEBigYxhisTFk05tbLoZIdWJmYxCCWtHpXfJ2w13emowUkzz0B6eVhVvh6Wz+2XNfNfw2ab5qGd/d+PaunFGWtiIFbTA5xAsJJFtq1PVxFR2UrDqh+FyGEWvnLsUBi/8m5j4qZ53enuLdLYw/FYW372OtAI4+QOiwsb4BcBjUr+TMpf66fS35zfxZvhOkzZHj1av8cda9zEx65+Fabgj1kMrYKc2ms7IUiFlYjzM4MwjCwTrQEwaWVtGx3UZK15lKKxgLzLJNtVvXyQrSNC0KmJk6FRy9Iycd0vZsbXDEbF1Pj0567CpVIqRY9RwhXuWYP29ZI5AEOJmTEJSpYkAeoKSWcQvEEYvy/5ytQ1kkHCGSC3FPZGiBJLdu387a9zO1yOlQVClRIih9O2Z/zxDgM0iLzVfqHPlTsJUoywukoqLxzPtXGaQeyzg9uYJv6vsb6yEcsXyJirbsU5M9HHmw6W9SUyEoDxMRbkZCd7S5gQeemSUittMs7Nrb2CE2Tmrpbu8gXZ+D8LCn6wSXUjPMbIpPt44R/3OdWJrAFRTWHVCzE2Y4tGl8Z+ZzQM7D70wPZJgtqqMQDUm0ggZdJQzR9Z3Abel+Td1SiTgZrk9heIRIsjWuaxQ6qGzUlCUgfqy55iMFnwDhNJ+Qr4xpTipMOn0t1xRtU5ozUw3Wx9mthk4lxL7ce9yGs9KRol/jFtPkWDEv5daOefhgLe2uP4zp27LtlMBnOqnFZHJfXwfUZ+XybHq8eURb1XkxObVRxh5CLCrzaQ+27r2tPdZG3XSMj7lr7Kgdsja6SXu0fmhpqwWLV8deq3LYZifxRHo8xIEHZWDqCpvACqpYnz3d0CAxT78+f/PKekBOSuraRa/YQu8pkIzQRQQg+Hx2pHB+IiuG6LrdSp/cvwsgATkihinOBiip7MlFnJtPgzT3H9xPF3GWcunCBfi9Hu6e8vYFDSv1JOOuWhFIxFEv4k5V9UeHWAE0YIcmsYr44M7ddOv+/bMlvfBn2bQwp6EH3PDhs7ODkkXFDj1YuR5CBRXT9x/AAw9wxQRLFx6Uapyg0QMxTEvHqJZFmI4ldyP95X4hpMDhYJ+1VK+Ofsx8ISwib1srhy6KUwfENRZlYcjDbxavxqAguOi5DhP5WLMN2VNVp6Cu6zb6zqGU3QjrD3MAGa2H/inOw4vsAbetdMNQdYAnlqGWNoyBA29/l7sJGOJ4x3I6YMga5BmJ0RSgTORE9LmcR3wbprt37sCy1LBF6oQ7I2clt2BsYF4TmQI8mgWdaMTKYGvu4pDvHbbSoa6buHem0jfasST/FYU5RN9zzSmcVrIj1oUkNYm6YCC/sIz5Dc4X20egmQhUQ6DAbGOTuifT6Z0JLLd5trpTeAc97hxiZq9tG9sT7Ds6d3GW3bN8PwEh11hmkVW6dm0CY9VDLEAmmOmZ3UASotN+LIyrk8zMJ2nnuJ6W6yfpSl2lLEIR1lGX+LYJMk5AsMJynDpOwR7OMMO1yeOA+t8juvU/Dy+uBxQ29MOzlLwXfwyWkGKwr73vu2zmQfM6XBX7qUCkuP3yn5BqQTEN2bMp7pM4rGsHhaz7lFxvBJQAAMbNuimAVez0E38Q0xx4CITNn4qXL/eiRFFnKKMKcOMsoYSu18b6G3F2r1tNK4uY3UxgmMt+lL1D9u906+m1Jl5JRT6IRA22rolEfJb9V/sgwiSWGQoYrlSPMdHhPCm6dYt1UQtEm59nhqHPZmcxhMWFWRtKp4mVREYR69QUEqLDWpon3eUJxOnMbBtYeSzKDjOzNegwCWADW7Al+nQWKaI+5qpswbjbnjhHpGI0X9hFeAR5AiwB0BJcI38f+BAX4uimrjxap4Sq56tHAflutejgB0EWUAwOWzBYN4UPIo+VyH7ABQERJt7EVa+WnorWBhjVrwQ+P1HbSPLCf2Sz3NLQDle6Gakt1qp1IS17BxPMrryBGOzvSwgQc/NxONRYtZb+gwam5JH1blIjZi72XsG/4T7Y7SaV9F5tDiQzD971YHNhB99/zz1Ok9g7Iirvg7CwkCG5HOA6F2pWxRK8N3Gc7lDuo0NYNuzw1N59gL+4blZO2IEcZDDNVn9s/KREDGJfZg9EOw/fTA80YEVqsiMQNn1WgUiZBxfNRAhd/urTWXGfwbXEKGR8gIKn9JOf/jj95v3fpGtXr6W33ngzhA4eMahfa039BdyuRn8g2uXLl8MW74izQGfZgau/6fc/+xhAIMNiahyV8cJurKxTZNEOANCFpAaxtkkvmYah4jmUqUNnJtBaZawMcZypQxaaL3ky4PFQv8/FN/NEqNAdzNKPiswpiTwn2kg0MSDtsqbCISAUy3wVkeMLA55wCIJVRBzeVylDouO/WSSA3coUCKQLNBV/pABxKdYKRCtghDnuUseXoT4OQU+4P7MqjiHtssWODblbQx4gCEHEfDgPX7cHyq5UyIYNPhwJvzgEDURSlmTHs6xNS6xzXmNT3yO87Bxhsd2C0saAFDUQpxwsvejsHLBbNBbCCCqI18Tn2yw6KA0swxUSUjtPbvDA4LbSMETK+pfTMjzOgjUv/gT1lxWi7iWAAbyryxfClfA9XGsZSne6gLRP/AGMIveoUn6B1sD65W0hgqyATY8RJ0Cc6DEvcO1VWf8MkNgNOdwaVkzT3UyIEDIURZhW2hFFOIOTS1sEDwGEztCKb7rFGAuilx+Zw0hDmVaXu6yX4oH/dYUTzobkK//ONOaPEc/DC+iBEkokwV2I4B4TBbLyyBnmQVbMYXJxNUxrD3A7hfRoZWUF3wtbsXHviTowLrqtbbGA1oPl+uYW7q3w983geQqDVsxK6GKXJwmdmQxBfYGmKmsBtx2EeJ33DrMVfJkhQAmkt17uf4oSqW8ULFRLako2CaTJqPFkrQa898gU96c4EwiopU+zsu4DBAhVAFnnlblXnfAzcpYze8xSFJnnHTKh7IEISJqop8X6Z5XMOH64hMSveCjiap7UcwsFudXC8xOCCTGcPB3LPHc9Wb5Znoffrgey5E6C6fjlgdJUzICnVdcDnEB+5VK6gsKygz7koN2LbdQCXlDoolyTSEGVKqgncuegro4921NEck+Pnx1GxdyydYFIIJDF+g1ZcME2RsQMNH572YEKeETHEWxlALWQGxXKl7C1i6ZR+0AyZ5QcbI/9UKfu+pLuQmhKN7jGiD6ija5pqqgPRKSQgpKPs7PlRdO56o431l6MSs31JXE9YYH/eXCMCNLHelNRoHUhiBajQBzz6LjTVhtBWDh3k3nOrwNco548BPvqYVpRvs+Ufx6+Rg84NgR7UY4gjLKLpQn0GZE3nyZg19YfPuBg22ZaX1tLW/hhOHucewwDg7GIh9W3fniDwUKDDwV858brnDMznSYBgFnWSA0QzKtCiQbvptj815yeSt9/4400g1RqEgAYgUZROSv4soLwo2WD9Vlazt6CSpgKFMcwdQKb1OkZN+xlRCd6ADeNzIAoq8o0vtTEBTKEw/ob4BghGqxpLEPdGYi02qimi2xsnKYQ35NBEA/RSTYaLhciww5bBAtXpytpucKRJsxk6ooCAeiThTnOXgJZ+mTgn/EHlO+1ziwUTu5Bn2VUENfId4Kdsa7DGsz27PVN12Cjl2XzrKN/Nug8vJAecGZiCBJC3RIMfIY9YOAO0fEsY9V9N04mIwKUMICMRCWsl5T3mFlrArdWwsi1q1fSDYxcZ3HPNceZPVvsSfIgK3fCNkGYJsarFfQvj8lXlugCZwr95je/QXqmDdNpRbh7wcHaQaUBRoN7p45Yn11Eeby+hcvhKDxiQP0H6erqEBE14umTGQD3AJ0Sp+lyHu3NW+i6DmbSH1ZQKAHc04D70Uw33drrpW1OgrveOEqLzAoNvCYtAsy6b1JRqqnVzvA4/QTk/K+H09japXRjop+mUc5ehtAc0ke64TpwNzHWR3vsDl6aXUm/OEYhSD/duNRPr10kfpMdxCcodvs4VIG9lAA0p+fTxkYrbW4ep1UkoCusQ9+8MJUWOntwAKvw748TtheU2Ut/jPXFw9pM+vUex7BQr7qei2KSK0cV9A6qevoc/VU+0odV2BdJQCnqjQ79Lv4Ey5xxR1gWwkrXyK6ig2J5UNMuSNCDLxktYEWhUYfmnovEpPnog0/IqJ629w7Te61PEGk30m384U3igcX1kIIKRcWTvK+wmNZJij4G4vQ8tZrkEdzVSxyQXPWyAbA8AO4jtlFk9CkKph59RNHra1isN9nijQ++2WXE8128qyKO6bRZdzBLHQK8O0cID5hxqhMaqNbYJj/Hzl53rWKVADXagbPtTHJ0PSxuA+LR0O0xZkGe9tfAp972CcKA+jRAzgmDHfJt4RWW9BdhFcMfgFYl+AVkIYmPcnVNbMXvg0htpH5IDXtd8saWqVbjlL0OFhMg1q4D5LZ+3Egf9KbTPkg1IF4H4lBne8ubE3g6YiOmbEhmN2k9ApFR50toWB9mC5fcJ/ZYg1nQsfbQLhWQopKCjPOQ4cm+GQ/yWEU4/ZQ5+vL96dWuNZsTLBJqAJIPuwgd2MAdaCrVGg5xGwVVlnRq0qKBpjk7EOnAA6kyRp/m+mrunE3DdRZkI4xGrQgBMGGxj8gavc/Ori1A/L+JMhb7Oe3ioALMZoP0HkgFdxdCBglE6Mn2tsiLfpAlI5+JNBtA7zqoBjIpvj464oQ4EKXDDKzjQU+Ot2T1UHF2a2Mm7TC7aS51CIFpI7BQDnRvzbVck5lclkxdFGnQQanfiqoD1IrWt3rHaZeZsN5n3wwzZAP3yx2sIurMiKl7mH55MsCkyTWdHQ/RRGzv2IDGcdVts0953RijFOsshRgh1aQPwMlcZowk1TkPT/XAGCLRiaXo6BSnnkgQoMfP4sqF1MHUp4+EbgaRdxv9kDx46J4YsIo8PYOmlCtGQMVtMQglq/VExq/gwbrpvXQRE6H7GK6WQdCpQZFnmh3WdmwfOWTG4WMF8bXI50ww5G+ag74azDauBbeYbY8BQL3TLvTYWgHQnsA6znTRo3Fixy5noS4szKdd4rWdHWi/ep5JZrZJEOgaM8UWs0yb9Y0nWkwyg3uq/JA9MNockRWmTLDbR3sB/CIAaE0fsooCO2dZx7awMG93OcoRAccSVhAN2LcjkOpydTHtDXbJZiK2u/SUJHJkzSICCNdnsrjL802PIaGVQ2Y+6giC0uIQcriWVEDUYROjksAq67djZr6uC4NYcXE5D0/1wBgiPfXtqRfAImGYdjEJ+m/+4c/SX//1z9O1i6+n7/3+a+kBe3yuXH89xsPDkWX1KrAbt+/diZMcgFbSMmAMyjcRLH2GddzK0gJ1fRho7Tt3v1axOGhO73OoL+za7Bz+wdlYMYm74fnZ9NEnR+noYCr9/gSnVCAYmO2109Y8O21b2NCxvvknq7NpEiDdgj1sdvZTh3i7y7BjIufMIP3JhV76fx7jHIa1DGIO7ON20xySDUQOaRXl9CwzRGOwnR6ylumiCN8DwI+Y5a6sLqbq1V6am59hjUZNURz3YTd7nEmr8e1jzml9tDNMl1gHvW5DSF+rddL6wUm6gb3tb7aO4tzYlYlemkBA8dryXN7OwQKpCVI3SDeF8r3TnE9H1L/P2slZqYnXJw0HF5nVtrB436Ss95hN29TTfjoPz+4BpK+ZGrkFwg1qaYgk6frVYH92tnYRQmB4KrUaBdwUr15INz/+BNxgBQBldfvF0rxnffbSg811cqyAYJfSBjPVw028CMH0yA698uCEGMhvycw2eCsdMJPG7BisDs1F8thHj7O5o93cJMCGAe4s6xBQrbIBu4UdXL97lHabCA8OkYIBTDXs4wS+Boj2tzucjM4s03HXbGUmVY+1v6I0zns9ZsnzZ7R9uzGFpBKWGLOoJQQYh8xSbQ1bmcw8Hd0tFuqgBkg0ndlkJfdRQXQ2OiARdWLGcJOkwoZOS/ZO55WYTjCL7aGi8Nj67T1YNYB/pcH5vyccSj0/TXyQEn50tzqdHu4hSMlSBk7npr590h/0ObUctQCsG6nTPDPRCr0zRd98DBHcZd0H34Gh7lSqKChhtuxhgdHHwFa2tw/0VOiPKosodw0PMPR11qw7q5Gn9ZKlPB2DVw4Br6zAypv//H8c3te54fxymkZZ2gWwFqCUB0cMInz+3t4OUm4oEu527RxALyaWmvojBl841eRfahaLWact/kIPwle/lyyfqV9mEICrEIOaJ+sViDK+iU5UriomRjytQhTmU0yKuDAvfNUWQcBgliJGX38NbMyzDRW2VVTpm0kAqIWvutiKDqVHRgcQKcEhDQv9WLiTQHs6MCOkOh3i12DrhgCc63V6mXSiqqwWd8wm7rAt65LLs09RqaKWAC5BHsoSYKmfwe3wCttko3MFKY42m9ba8BTpK9j5ESv+BZsNYgwxYXKtpDSuphSPukQMypugPlbdlnnUiaviWCNpfU53HDObqruqYkcI00oplgsL6LjbZ7ClGU5sjhXntZ++qWC3Ui+rMcE6VMHPieZaZ+pThT2Ps2yx0g/kNwVxPy+EBJuP6hXbH/yC3qSx2n1NMM33Wagur1zCLg6efOYy0p41OiJ7VDnNEJ0FlBAyjZiVz0z9A/nvQKaS+jAIJghgNtLnV+g035d8BzTqd28Gi+2HnNwXfRS9yVIbhFlYwHOpdoaYVvc7xwCwUr4JZiSbWk8XkbRNNWC1WO8oGdtUQgfQwMWlCQahoiCBmW2ONaMCmCYAt49EboojQjZxkazObYajNplagnV0r5GIAOwyS02nQ7ykTiN907+Dx9Y3phbTI9ZBWi/AcbLmweIcQtem7FjDAMSX0c093mthUcKCCungLsUcMWvBnTJGFEkBXdg93S+H1TvPDcZieWEl3bqHM0pmNQSU6ZC9aE22zbckgBAFjzG5Qp0O9vA2S3+pNZ5yD8gC5dE3+JeFGFXSIttOjlk7qgwmEo1B7I/VexsnlccguG+zsOl3YPxfMnjR+qApmXoxqsP6bFq88ffT7MLFNJz6dbr3CTMRvL9BLPRPL6Kv37iWPv7sTrp2+Uq6trrM5jxORH/zrbS7oUP9RxypjgBCSInujOTf6E84c6Tubkp8uKUj/Ry0BnAZ75plbobTM6DQl1c5aaLeRYczmz77ZA/YH6a/NwurBuBVAOwm8aVunlLwExBpBvqG4I3ZC6AD4I/nZNMGKEZTegOfDf8V6t0DwG8gGFjA0HGS7flbQcCyJcL+dAtBxTAtIzKvIy10+0Rtoc5x9C3qAZs8iZ0g0r3qQS8dwifVWW/uMjO69aLJGmgZ/Oygx/pwp4s4HPOsGVht9EpNveFwSngNwO6A6JDL8EHY54jPDgim1cMcbOqbsxNpjrx3ApHUP0G1p0Autn2sTjn7gpgIV25T1g3quAoncvO4hf6skRYQqCzNLsRW+w2ozs+uLaZfPtrnKBSw/3dk7PNIv9xf3HFJFuX9sVyGAk4zN8/PXEgLq1fYa/QIVkmpVZDufOU+LI2hSM5E84iXhrBL//SP/yjdwSJiiUXt1u7jNGy5czSzFeNNeHq2zHmPx3mR98HixUTOiRPoYH7z8YcxW9qm2P0KezMAePdYKBwCHCz3UuvAWVoToU30PXwn7nsdZiKAvS9Vh5CcwNrWEaj8V/RoeiE6ZqZaPFbK50zDuko4Yk3xCAXsOmunSuwWZlGEMEFRQwsEqRiXmXJmW6f99fSQwlvMVFrFN3c4w5Z4MoF3jtrptkwnmfYpR3bOTdDNIwgfa5QHe9g+Qg9bSOpkWNtHzLq4PE6Do7C8f3B3Hf3VFGXARbBO6lCnmjuAGftH7PBdo6QGBKVDuRXGVJowiyqgD/JtxDoLob2zDYg1AxPzGGJzAMt5n3o589YhDPQc7CYbFGmHXnPRyNN/wtaLHM3f3bwqP/hn/3p4l0X4JAviKRrfAXFWrv7DNLt0OT16cDNt3/95qhw/TB3WSPKXYBOn0LlTFItuF5YMwAxUVy/+b779dvr0008B2GMoO0DyDAndWUR6kZP+U2skKSIDKcJAvAEcEMSZxB2Q6nH4DOgQ58trITw8K1YJJ34r788Od5nu876Pxx+PO34/Hsf7s+WVcc/GKyvlarXk68fjPKtOz8rbeOPvy/LK9D67TpqC2MAJB9trOXkd6t03FKjYK1kjuZaRuTuBt3ULRBfqevTpn8EOzEE88bcAVStBJKg4T2HMqjUyFMh10h6O74XTX/7te6eCBRWVoXvgA00pB8KnGBB+sjTHlC8n2C7wWzFAWpmZg1g04viaT2/e5NgOEB0WabxeX1QL6/ysMP5+/P7L4j7r+/i78bzG7z8vzvj7J+5JHOk/h1g8b95lvPJaljH+rLCjxXpKYHDo/ZNY2cff9oDzExpa9IYNDqVsH6EnYtmR8lRoLILItIDRqkaum4i2Nbtp4IrK40niFHAovrZ2bRR9C6tLeDZdiy0VJvdkB5HH40v2WFx73ownoWlBbnjRHV7WWkuLWRSkbqHQo5GDK4a96PKiEb+DP9HOsjNeYv2EI1laudrvEhLZpSNEsp+jw0NBqS0WpjO8ZDseBCbPGiVr4FaEt//g9zBQfZy+f+NGepu/KuzeFuevLuHzTRbQvUl319dSF73Nn/7pnwYSbaw/SosYfipF0s+BvvR+/u576ZNbN+UYA7it1IsKATvk28GG7ebDe8HauWaiZSGdstCI86IKPM8nROeKv+1X1VYSzsx5fLs7p26j3YyG8BuK7ZZnEAfzftazBKg264tyrggGDeCbwUr8V7/6MNZA6+ubGHciEmWrxDTi2K1t7I4RietEssVaZGp6Nn3w3ofpGLaxuYAU7P79mAL1D+4GvwdrLIQpPyY9irKMEPZ97X53xnFEY8nL4trFfd6+qPbD9uXNctwwU2W9EGJshAwu2IOuUqnM41srFKLMnlLb2JKAoKBbcXGPRQOSOg19W8zSSgCRn+PxRytrGWcX7Wh2GkjQyMUaaG0eO4goV8mmHm7Dho5RCH6etFWVnaSWAxgwY+cjZCK76CuHx/OSPBrHb7LbEgb3hYVfB6PyHpIFb0u9iFelXrUom3rhi8Lt8gOcXsa4Mv4SGAmo5LOqwvYrhkAY21OkC84+4OgrZvR3MDqyI4dabzeYxiBZ6jgjVTxgqYpDkIPwFvREuwCuXZS0dpbAv3/E4WBH+fxVh15lXqylGERGKJBKX3F+GKzlIbPMKNV3CAAiUX4VX17sDyIRWMpLFy7G6XZLzIif3bsTQBpFyo/Q1skpfJkjvnYHb9jXIUSZmHLbAgo3zMCbcyup1zoA6VscqryNkWmHPVdI+pidl9EV6ZZpDguIOsCsxl/J3i4IsDp9AQsPrD14t95mTbn0fdhhBOYDiI96Kzcbth7AFk9jnnQhrEM8Ca7OzK6XmliP0pcBj7LCIITSwiHSv3/wk6vpw/c/DBvCO3dp0/QK6gscsBC/3FA5R93CLZotDt4LRfv+OttbVtLk9AIifFwuY+N3iO5rCmuMLnqhrk5dkMJ97fAdQSL7KXg21xCyYlp1e3L3ERI6FWkTApZEquxROkYkmQUYdTslrhCRQdbAcwwffCDuHMip6FjtfeigLJBv5qfm3zJck8UWblEToA1D17K8F3QVWZXUOQMqArZF5RhbF1ugRUQFfUuFbSA16qYD9Q6IM8AQdWIKJLnwRqpPYy2HGFmDXJ05TnKvs3ydCfYRDasErWs1Qd+oi9lH/D2JCdWl2Un0MdU0D6Gau7CapnGUWUf5ql9A54FJlJ8qfyVEFbiCBmNRJ73rTFFoirjOVXVmvIZ/zPiu97BNgI2mL/mbZKxct5rOtapXZ88uDjrbiPUrWIbPIImdnLtA/nNsBZkMxWttYgYDWHR+zJ4NdEr1EMsrAD8PX6UHGHpDBizXLgxLeAbqwfu0QhrHtwLqyjWSjh3feeut9OEHH6brGKpeRSnr7swWTk40aal7Piqz0Aq7Uf/q53+dvvf976cpBBCyMOgRMZDEbovdqlLOAwaxA3BPA0zm//7776djjpp8kUFE2kXErzvijeJEvJJVCp0YJi9HzDLqQeIkCtqufidbfWQKsdX9deqCWEOEMG6X76Anc98R+27TDkgq0/cYOz3Xh/lECtiqynT6AHtDjBqwLGDLiXqcBx8D1Ohy2liMoI8xnUeGalVysPeIvnYMsEQ4gNmmn/r0UXtPdIe9U2SP0lzzHRKnX/9mK2abI8wsTiQQh2yeZFOLIQgEAxdSM5C9xT6nbgsBj+1CWnl8yMEH3OecScvNAVsuBuSToUE0PA/P2wMKKxkUvYxOs3t0lQGhG3GWOAnFmkIgcAw1k2bnaAwCmHCBXaa7eBoK1gPAnMesX4coC5cuAIj5KHstp2fZyOe3K5dW0x4bB6Wsel0VMbUOd3/Q4vxl0ii566e1tQcxkCLziw0SA2YdyhF5XfahygRgAtxCiQpog+EaY2p4ibCFmUFWqIclg7Ny7+B25MGkCRxmUHP9qLORk1h3OLs6Qzm/EYc0ms89YuuFa7MhxGGICdHEEbaLALAOH2OXJfG7IOYg1olkzvrU/u7piYh4grr9lWvq7K2CmGde7MI5GOTYrJEzpWn9Bp5FohqIaXuHqDK6WJ6HOzDi1DSyJXedsbgqBLt561pR+0l6BuJyHp6/Bypv/It/PXyIgMCF5xUcoDQAtCamMZ5yvonfhjje/gQzGdYC4QHHvAWkYjCjKO5jXeQIMgz+d+QnoLyKys1jXyfzJMK8cRQ3GwcSXcgAAQ3ex8bAePpqP1LfcaPVAAiy1szm8sXVOERNYvHRzc/CINO1kcjkAv88fEt7AJhwfIWul2u0WvSf7M8aJj5SS/l02Qhd/AZujPrY6uTFu0cCKqUpAV9w9H/UmBsRzTy3mLmk/nmdBBIJsyCrUQ0iVyBRgZm/LRLl3J79ax1dtHuK+C4i+vNw3gMvugeKNRLZgiOiiUAN0wGEw2Zwr7CgmCyibJHHBe+V1ZX0EGWrAoUaa6IqiwBPoRB5XP+4uO+yp2UDA9accSTnPkopHriUz+X19MsLu7NOj5ldFW6wCliJad4AAEAASURBVIo2jcp9YaWcZ/Rd7oFTRALA5O5jzhnBOlgzus/dZCyVqSuL82n9wX1OW7icrr32Wggerr12DSTDDAfR7QO+LSwh+v3PG984zNZkMZUgglAz1P0BhzEXS4jv8tift/0F9kAoZJ2ARJhQzvJQRaozgB3SQQdvR8U5abggVW/07gdIgDBKvftgkxPwHoco/NfvfxDWxh9iuCrrN7jn8SmgHlAbfr5HOb2aG5tlkLXTl14Hk/+LbOF+9AjpmO/5E6Fc9MemvHgjqXDxzQfuQkTPXZ8Zt6IDfBb0OtVUcVnmb0yDTk+kGgoZsmW5pAmLbdaf5odA2yOX0iSW5BythMN9y1ZIYE70efR3XrVpGe7sr2jbvx7rPDfanQZqiVTPYArEBvwazOs8vOoeCKNoB8AhV6qlY3D9Gp+0s75lnHI73sbrojCs8aDR6t4hQgQkUDKEbif/9NPPchtEoBjcgKBX3a4oLwDLnwBu6ouOZ+3xRrCu2cMRwMxnla4Z/HJPsDrM9VUKFpIw9EMhxFLwTD5KuOJTES/HBtssy/85N5FOd1ZuhvBjCDV4N+nRmuCcB1aV9bBnA3O4iIhdZlFzUYDCfxxAumH/tDwJVNu1LLGMl8s05nn4JnpgjLUDqFj7fO/N78WmvJu37mQgesbYzOCjrQG53Ds8YV2EIhGWacB6qM59FWWgp1Hkwf0mmnRaZlSdiuA2JDbzCcghNRxTkXhOqPJh3WQJnCEEZgYTUUJIwjvz0d1Vjymkr9ia/UsqYgPU+R6N5aevNTl9IZZoWuQWdIXpVXbgIkgHT9zezYY9TRlJpw9BUcCTz0NRHZIYBDxkEUeGyBlYD/66Yh6VUggk6linBskVXVvXjKzWmXjn4ZX3wBOI5HGUu1ply8Yw0A7zeHDwFMcNUax+76030q/f/4gdpxfS91+/imUouzfZ0LWLydAtzFVipM9mMJ7ZK7gvi/dUjIXFudDwqwO7c+8uYE0ViWA7NYeqYy5TwYpd11x9pgQJhE5P2h199uHnob4P0OqnABdYmA6hrUZPlo+wUQEdp7mDAaWE0rnOTX6a3WyyObCKXd71uSnUCMep7cnxWDz0Ydc87HeKA866oWei37GYkM1cYsNkhy3qSk491A0tFyjCXCmeiKsqtXFUecLO2MYslu1oBDc2N9KJ+1rOwyvvgScQ6eq1a9kUBQcQCgx2d9liHthzWi/p8yxOAW7fvBmQqL8Hj3Q5ZHby2BSPgzGOjMw3TRsFqZgwAFbsKFAMX00Xl1bS+u17UHFnHWcDIqGEXFh9LU3MLaW9h/fTDPEkDKm7m/o7D5gh2umdd1Jau4XlwmEl/XQOW7rJNk75d3BfNQews+MUoJ5AsTqNz7oN7OeGmBtNYud2lWnjL7ZRBPP8j6foG/zg/bqzlW5g63YIOrtb9hpeRQ45Gb2Dt589dG5tkKeK+ZD918c3xiJHdmoAvLHzOPZT6cNcU6cjKr/PTuUTZq4Jzu+Vo+DD6WCd372yHqjLNmju3gQAVMJuAxyT+CaYxgJhH8cncYxJUZ3Q+QB8HvfiIlwgvIt0zjNZAx6JpwmL5ybFi1OW/pU1aLwg6+Ssow5rHwTfoN63sJ5gggh2SG84ffgi7f72tu6k6u4Dtn0w06xcZVUDcB9sAuq4+wWw332ffVZYX+hI/70tTT2ngt37PRC0zu7iTw5hybqsL4/ZBq7HITq2yjrzA1ah2tx5ut7/tcVaCQPRBkhzAUciBxjDfgzC/JKt4e4oNo4WHiEcmWpmZTjSCR3ka6w6SHOpcQJfeEK9mZWOmb2mMJxdwb+DM1efcoKNsOHnIfcF/aBHWwVpnuDhaj6CC36pbBEwLAmY8Of0bfn16atxZKnLMJqRPABMtk6JXQ9k2EZxmaVJGSciQZB3jFnZMtGDckaQ7DN6UuIjvNEUj/nb78ivYu9DLCtch/SYnSIUHSkrV4fqD8UuhCdTuOo9ePBLOl0TGr65E7gyn08nZ3ZxtaM124B1Tw1vpH/dssX4AsfoNNg62GKXM/64dSNMcCayk5MaFt6MKpsML6S/2oeFxotpD2NTCVIlxD6kA09Ke7sKDi2DeJkdB0Dr4swQVWfyUVZ3gH3f0dpGjJWOXCYwSToPpz3g6CC3CclnGGHzrNI/4PQ0WvRlrG/HkGPs85fejhDJE821AnaruYaULmgZucigzNurFXAfzLXVVbyo3uUolBmcQy6kN16/jr/qB2kzDid78qS/L63FS47gkZeL6JGmsaqmF2PXbrkGdH3UxTJ6avYS7NEMayTdCOOsBCAdDNlS0NK4lLkAm0AbX0fpPGRk+vvMVifHqQ9S1GFtsaEGwHX2AjqxpprAKUiXg531JhTicpCySroliRFIeG8LG0bu9RrE5p/csdEP9rKW4Hgs4l8WLPgOkmooB4HbYWx58SYPlXU+e/iZSb7LQXh1XalcR5dkkiIt6X3/RGBdGobMT7z8koexTEaIFCOUV9+jmagcXcfOIHX0b4YjMrVbMvrr115L1/nrsPh++wc/SCfvnrAOB0jGCsmpv7lfO/DKlSuxLaFJ3R9iChXBhgnYzERLy1fTJOudne27ae7SW1hna8C6xR4hBATHh2n50u9jZKu/O+LT8O0DJZOwaBc0utXw+iRNv/6POMlwGxUCbBZZ47sWh5LMVoc7IGM7TuNYne+jyP6I9ZQdpF7K7fYFkkSl/HG4/TOMep970oz6FSRzAAxFlKfpbP78nf4tuy86Qfj1xpejjsxPp48R80t/hJuxACLlHKR++fQBKGgMoiJWvuX/OQkzlP82NjbSFry8w//pZ5+mmyhgB2w90FTIrRihhC0KOS0uD3w59mN1eOm3uvv94MMPsuAh+ChqBQBnHhkqjtX39tqn4BN8FY6uJjHa7aNQPtrdCLZP/vp2+z9B2tgJq7wP6rWwuJoWWEttbNxEea0X1V6a2fs4NdiOsfeALQqgUg8EjdPPcQMtmyhybW2A1KsgHy60RBZ5cz2VFsNQ9IVjUggNRmMuzTvtTSPWmfmMeR4+vwfsMUmS17iPLjzba0I1wddx48OXhIyRo0jyFaQltYy9Mw6fzEuAj/fe+JJgTNdNrgU8rpHtr4hlZSeIC9ui91DZQaOX9dFHtPnEIVVi8ZkKRMYv6aesQ+ho1PGwQte5YhflpqydQdmilg2Tk308zGaD1tYnrJGsKnHcMRtVxnFcdAPvVVxvHt6lqffC7EiLc8P9e7gu8zg+9zMR2S4VCceDYuxPdz8ZlT/+7avem9d5+OIeCIgGhh3tPoTSrfh6zIqxHEvqliCJZ1XPsox7QMfZSGPxvX1K2GB8eXn58EaTjHDg7qJcADPTYqlE4TnnKXwzNKmUJ5u7/ohdm5jBmHG9ACp3o1JrDuNivQEy7SKh0on8KYpx+5JD1NY6YQFwGbF30HREx27LVsdjXaLDbBftNH5GsNP3c5zO4NEr4ZSR+rvNewpPpYdYdDRRTLtFZJb1Vwtp3zxrpY4HVes0kvyCe8sFPNHSEomfeHn+8FJ6wO4PgHdw+dOfegTGZzyUQp2YN578NB7tc++BrZxK1v8SFt2LF+bT5sMN1Cgcf87uzj6ktcw3TyYskAHM1zFU3ftgL127ci1d4eQJtz4fcw5PH5bP70r2dtjDtIIgogGLc/PurfQAG7eR+PFzq/TiP9hJ4SSEWXMAmxfSGYspG+Zt0bHGdWFqvxv299SloTtDqIKAL9KqfK2xr7yxOJu6B+RNggpK2q21R2w/b3A8zAKz237YK45TrZzj+e8r7QHGuESSjFCZYJbvyroEKGQAL1994VX4EOnKgLBXfXklfR+BwQ/fQCHLvv0bK6vpMcrYdz/4FE25lDsHC1N0OGAKvPXZTfj+Ctuj9zjC8QTF5DQubZH6gUhah1c4aW6fRXobN8HOSHscmhUeieR3XlHIneNqY5A2YdvsPCfe6MRymrUuZ6iTr6ylM0r0LT12oDd9QgUxeRcXvfqW2N/HSQzsbJt4kR359CFAJ+4qJrHZjvV1pD//+R3vgQCar17HuljlGmcKkfYyZxxVp2vMRP1061cfweGh+IM9a4DKzktuq9Y3dAvtuacmKJc62TvgaMfdlHZAK+zR3BiIdiPrUoCkrT0OMWY6NX0F39RhFf3V6/lbpLDO1NF6AtT6oKgxUwrZ0VdCvljiX8HWZtdjFAWy2zrlEnWcyEftISi4wvYjsw5uyzhpogKrZ15mYfxAPu6OUbLGg9G/4cABGtFgRcAhZ/mG6/NtLd6lNEM/SB/eugkCbac6p2hvPNgJ5aoSpQx2got/vOC/fusYFtYOxbqCbzUQTp3iAO16aNmLFMBYbLEImKUsEepVB3U/VziF4hAfB241//T2zYD+J2oy/uC9Fec6wbpHRGrjeH5haTk18UXR2TvitL4dloDMTi5QuRr9G2iapX5hCI09MYKtKdsYlf3CZOcfv2IPcEZYBu42s8adTU6RgN+vcaKclstCU4DIqOPZYQoSXcMmr4+e5cH6Y5ScU2kVg9Dm3DROIqfSycERUhGMLUnuJj9twpSUaHK0hqfVHZxJvurgArONg0pZuseI7m2O9+W66Gx94jsvna11TSaCaNDbRsDQxwKkdYBzGIQr8+idtnf03MM/+bjfwRBGrkW9bM95eDk9gLAh9646JMlWsGzeQocj8HkcRBR/n6Bw7WgORLwZJFahiGV9dIj7rvnFpXQFL6obAJjAV2Oa8kxZra43t2DzvoHgDLlt2dTddZ3/bfV4u8arVcKbgOfWdIPuxZCk4GoLLz+wikMsQA6RRCrW19JBG0O5SGcnQ5lHPHzJjyli3fa8yEg7ynWdxCDSFmVEXmPlOSP5LmpVDOnY5/PbF9QDoQARYKqeYM3wZ3wSDFzTcPFvLAwApo1NTrxzawFGk9t4Xf3wo49wir/DGT15K/cEbrf2Cu+rLkX6AN5n7G9yQ2AxpGM5vvxbRfILOLXUGHQekfWdh1h0jwsbzlShbDIwmGaZSVvsrNWa3W3qTbZObNHWNroITUoWkXROzc2gPoDN2z0EYbeiz2K2GwE8/WoZox/6VgTwBf8XYRn1rirrKQtWMIr0seDvzMlvpM29p+s0WUqlj5odabmhGF5bPPOdwQXaYSEcWb18GeHHMTNrcVhcWQ3rcx5eWA/U3cE5UNqgJh2SGoaRHCngIDuO/vUBEvfIuCtWGd6ALQGeTl5j8HWYuLbp1jnWScTbx0nkEKmVboIVhXcBXgc3ygiKncniCNAoAGJO2dmeQuB0h66rMO+tmYDUY2+OAKNqS72Ogo4vDrKlRIYky742EcHPz82mKdY4d0GkyDjmpwJCxzILoUMBvEsrS+n15jXE+LPY6D0kT9QEyzdYQ8Ii1rCZg109auNemAOOp69fS6uvLaUGOrjHtx9hlzedpl9bDKv6GRB5KvYv4Uyy1U3rn91i68YqWzeaOItppvVPbnIYGaeqr4JU7C1yg6Sssv7xoECpN6+HV/oCBJ6gE3YQtbtWqy/NpgYnDc6yluvRTtwSxuHQ3Ud4it3nRPatnRD9a40eiGtnllg51ubz26/XA9rvRdANbgMLZu2+RAKBVQ+o0elCusjgnMVBZD/+gz9iLbSTbr73Kyg8Th9RuroO0Y8dJDLSTCAF1Kh1ZXk51lW6OX5w/wFmRBPY6nnmKYEBncf2rcXsVWMW64Gsu1DOiwsAEwrdCQDpkL09k7gRDnYKGPDM2h0s0zsgqajyhUHAsxikbH0ssLdPDtMELGlO9iVpi4x3treDop+wNjpAzL+wgJ8+9EiPH7PWQzpXwei0j1mRLG/vUzwVTcDmsc7sqz1HUth/wAHOtKPL8aGdASe8WyzbKyogRx+icwIxOmCt2dOrLUSlwj6oARLBOfzw7XFAQZ+4eqidBqH1ZutGwB4EpeqWCUTt/SNmIpBI+/JYu7FpUEv3OoSjwsx0AjLp3WmJk+idLbWEPw8vvgcUtIX4Wyf6HrLcZr9NeJpmdnHfkesLQLHAN1mSarp0+WraI6Xs0aVLWRm7yAkVdRBJxefc7Gykra1V0uuvvwa+cD4qCKXfvIsrHKuJwrLN4b7zc/PpMm6N+yCsrKCi9h3WVtdfu54+/fhjAJ7ZhFnknXd+FDOLO1G3+L4Hsmnu87xBRywPmU1sR0NIttFFi74wD6IecyyNyPzYbSWk2cL1sbjgamvQb9IfEA62MgjgBxi5htDB2ZXpw/1IXfC2U8k6KMuy+GClqcTxrqycfctsDl54t89azv1TbdjEEIjwzfIOQba4oy/1xRp5UE7/mJPnWxsoHIxFfbfcnpGpo2MlAZQN3CqQKMeKqOc/L7AHKj/4H/718B7AcQlDymMApsJOT73h1LE5ck+SG84gyanL/pnshpctCauXGJx2OmLH5gIU0N2fDWaaYB6YmWTbZOugn1g1yILBPjK2Hr8uMoTLXxDBDXVdKOs8M1QbyqxZkrZtec8QrAmzksDgbKlLLbcrtJhRwmrA2RGgGg+BI1DrGvGyFA3QA98mcHqyzEFjIaGkbuucaq5P7TDSpW7iwjy7UHfYjzUe5HhXEJ7ozL7DUZ86zrTOluuxNbZrllnB08g9haLN4cltZux9DfUpJzzTfg7kyjLHp6IJPhvEAW+9Fp/IKz7FT9wXH87SgzKe1wKXThN+V+/oCwVnduFL9bTap8dD8QiAryyz9x9+e+3uQ9g7bMpgqdw1mwacjgCgDPA/IJJtb0HdwQx3d+zhWL6KdbNnDXkosW68suicRXAAOvmDXBp65o2C0PWwtWGwBUzS7SEyD6Un8WNd5NoIRGTBFgvqWE9FjAwNPmebqTEIewagCG9EjdkCTwhmxxrmctrcYaYtofQZ6ZyyMiDrE30KY8YOs+JPYiZ0m7dnO21vr6WFCSSY9x6lGZB8d2cvXWErxq+x5kD6z+HMFAAWD7S9GiurAeFwx6YsYWaWITiBEVaEfU4QDmeeip73VWDbJ3AFzlJmVO43chbLhCBemzjAJSMR611u3FfmFDhk3JTGchfvRfKyShnhrCv/GduQ3pJyiHTSEj21MVasPjgGuRrxTcIVN34ykE1Zv+h491pJyUalRaxv5Q9bzekNSO+jR+vprRuvc7THZHoN1koW7ZjTFhwO8SGGAcmeyts/5PCwx5xucIsTGSaYjWoiD3oV/TcMdeiBI/oGiOkBWYqFJyH5OQ+Gn4PM3OIdcOH6gnKcpXTwocSQkVOyEMahcToG1ZPlGR8x8xp/9unzglGVqLWwyHDdtfvRJwW7KhR8XsgQom85WaIJAP+QtcgeVhxH2B/ev7+GUAX9ErPykjtXQfoB5xIdw47tYBly8dLFtLb1CMsHQNCdt0WIXKn8ABY2Iwt9G/LA3D6brng+W43wMAaEgr7/Qi7EVbH7QIJkKIoIYhaYxPsgNhIPSRT/jEOWdjF2YTlYBH8eV5kJWfGeS8T3Gvl5w1/ZlCIvOZR4XTwTI6fj2fdajJj/dyHASNHJdJbStY9v3k5dRmqac38UOMRsZKfUUGYyMFMdtlNPttL/NLeQftHaTnfxHfDW1R+wS5ZvF1ZSExuaPmLx1gkCg0vLrA04A4hFuojm9oItTqRooMScbuYT/di8gKnNIUe6TKWHjx7CtnnCH3Z6neM0j5fWX73/Me4JBAPH8KuPiONrcEbc3tOhJXaAgGrkJAF5jixV5PZApA8/vUkdsN5QEAPS9yHH1fpC2mYG0UWXNoZ0Q7CoW482Qizt+biee9dhdhKgRAKROteAjYEgVYhMIDSFnDIoOmfGgyR6NDpg3Yk3IwEW6aOzUE8+lHKcJ5SUqrfSXbRCBMX7Kr8lXtE2Cq1yIh+8N0RKlSFxqUMPQQe5MK6gFUitfkxBh+jU4JSKOtvsuz2IHFxJOMb0EwhpPZxoXbtGOsphsiMjamYdKC9zC7SRezfmuzJQwvttD6MWhpdPOtPOOIGVQcyUyRc9QPdHPyjCdjDvspbal9rwdu9wD0UsA4+kqMmMVUdq1QERNrc22ZIxG4M75SFarH86uOvqQNFPODbGY13qbPFuMgNqYe1aCDgASAfp4vJK2mDRnAUdlvLbhRhzkprDItshdMulhYVn2wprXxYEikWIRhPLb/daCfga5Cq8OMHS3UxUF8zNL2F/qMXDLjNxJd0AQDtA6hGHj/2wuZRustnPdZSHga1jajRHmgYkTP3aIe19SFc3pmbwi7Lo6op+aKWjAyRtc6zDOrDQSN12dllDMutPLqxSB0TdrBWrzILqktQr6Z7rEMPgyUmHFG6AunUZh5XaVtplLxWa8zQBS9rmnWL4HZC9Tt835meQANIOTCBa+Ee/jG3hvNwBeezAPWzCejcvLAVSSBQVbngaYY0lQJW/gYfTbbCT+AKSVghVnTaePEbSCmcyWTtBUINXJCWMEq5vcZBMRfOgXSCRjZVGFixD0fBanzUSA9ZpsODGT8D/cYIZEJ3Whxdb31uD9WFxv+M6B4RiQMFFKBbrn4HmM+AjgCXFDGplCa6pKGuA0mMSJJOiCaTy3LIYdx6E/UEYmlqF33YMomXkOY3i+AJHW84BQN0m64511nhWMiJYwucE0s4iNVSE79mrD0nXgC1dXppPHZSwVaj8DspZxf8eJ9ScgdVlbfNT+q8DoqyDEMsA4/4MrCrUucFscoI1/NsTs2GXWIWYbByzNfLCtbTXnUgTC5fDsLaKC9bFy9fTcP/fpt7xblrgxL/+DJJODi6rNi+gFsCJSp+D0XB0cqz4GyRQ2DOEk5hYukq7aCO0r3KwnS5WD2FJt1OLs5smEYGr75rUdx64pTOQJhLUIaqBGrNGe3crLTKuP+C5Ouikm4zvDnBRW8SXhVvuYf+DM2A8py5yeiEdKCfjjChy9tk5MMACpNqcSi2kq6vLcB4UNLOyEiyyY/5tDZXv/fN/NVzbZu+M6xiAS5YhL1ZOm1xVare3lRWwvJalqLCu8YBfEWCopx06V2BzsQp9o4thg4wLZRwyk1VEMPU5wafA7pl9BcUuAgfziMA14DtPgPndV/gVEU/PR7IOTjvUhuxFTfMOtgf2KoQNwVLBzvBhaW4xWE/XeAGFRZWU0vECpKEthYRCwYkzgYIRg/U3VhARrkolfaHgRdZL4uALXzvrWpdos4msk3Fkrbgaxx6UvZpAQevmwTZ2jfsnEDjqG8So6C/5A/+bJr/nan9aiHnzcRrgtg1HKMmzJJNPsonWOSfM4075YSlBKrk9g83lPxUSK7k3X95QS56NlCOc5mVcep2+sWfmmMltV5V6uw3F/HM6Pr6qYL3pT2v7UqV29pCF5J8MENF54w2V3NJxAyjZECr23//Lf5X28KH9iz//s/Tjt7/PYcDLiM732dDGghsK6fT+YI01DxI/T6rwnNjH25s42L+SVi9dwZzlMD3GzOj2rfsxaLIlTcTTB+iSPNz5hfPU1L0KgNlOXQ2raA6A8zlYSo6+hF1tALgdED9DT+4AkSGGQpwsgqL9COW1/EAJxi6ScFcgbO7cUb4ZsfhcdnQgBg/+50/pJhxdWHgctu0PHlznSJS4PRt8F4hplhIqQxHvGOVuvs+zvqM9ipsTFtFzAlNH/eNt8SMCjIWMwE9WJPIkvyxNtUj2qukXnmgiUsmRjGXzrbodrZG+sFV0Ru42ABL2oePxmHSOlPuE2ardwlMp/HdFwGKPjkpT9TZ1lK9T7Bx1Fnj7e2+ghI3lMd54Mmv35ptvpjnWDtJsJVnvf/oxeY4K+8IqfZWPboe/iDlOF2uDJsKMu/fuBbAGfINdiniXsHcDx9JDCERubZCXr1LMi4vLDDBgljfIogmM2aXXb1GEMx3BPF7+bBCkKsrLZYpOcgYW/Q3256hGL+/m+RCJ7rAbBPg+i9Wf/7//EVEyNnWIuXd2djk/1oN+j1nIT4dEqMqM1MKbqM70O8RT0mVcbejmZtdDqme/9iS7kD9P63ZruvkE2/GC2ytrM8kaIhAJYYPnyI6IrKNMkMpONDjVnH/Fq/zhG/gNVqksl8p8LRCUOhAij1HDRjdlKS/smvVQp9k9a/Y6/frtuXtORDKaaw2meNZBx/h+81BflrhxIPBwiE9rKN8O2yXykLmGgBq5vgh2xAUpaAgLt3fIUfUayEppmdnMx86usMfH4MoqOj+eXsQPpTETPlDAAPbsIQYPxXBBIWNtgdRq3y0ROHNRARqUO9oqUvnnbyYmIxD0xjVhVNF20uZCrzN6ZxRm2GCMiO/k4IQrlTactjOniJejnyfZKVP93QzWe9Rrfzeb8By1fj5EQqLjbKRAoYJO6Z/+8UpqP26nv3kXIEFeEOtzdEyzC0jF3EAHArURlU4guaohKpXCHiAu9n3m3ChWOBGZik4+vT5HrZ8risAfBYA46kWQMYM8+ZwjBpa6KJ2sYNahtucYEyURLDQ/IIU+GRTn8htsyQAvquKeYnqvw/CIRK1DAY3Uq49+CQ1llbJCLwOBUDfkTBy+0JkFXQvWyHMR/xaxzURCQ5AIPR2e9e7pWF/+5lUD8asu78t74FXEeC5E8lh74b0KQjUmTtK//Bf/OP3Ff3k//eJdjr68jLBhvp7euv5m+tu/+VVa5mT0C4hZJew91iaP2Wag5Oo3H32YZ4JX0aqijBhS4FH90RXq1DlqpUW2nH/8yceB3BL5AcpUNftzi9/Db/Y0CkSOchnOpBmc2HeOttgVi2U2NnSL138SxrVatSvu3Vm/zdrwiHTX0QlBZrq4N55GvIwgY4jFg04mNcfD2jCepxBVT08jbq7irgvn/Lvo3c7Dt6cHnguRAotosxYQEvb/8mc/R+EK9KEjaCOl24eN+6z3aWzcU9DwiAOYldbdvHMvXbpwMYxfS0nRq+w6EUm6LlN2jCJYm7UNzo91Rslt8oZZSE6LyEwesblu+cb1dEJ8D5N2u7xOTrqs96QOR7Cg5jsJ0k2hnA3f4ehOWihDL175Ma6LH0e/qLzUc+ugq1suDHyPOkg0sSCYB1mpR8xuRS24nIe/4z3wfIgk/yZrxxqgN5xP//nPt7B+aELNq4i1OWwZhujOcB0JrUKFrF95iBGn6yMtqn3n5sCA2LOs/0vswFiJAPXuzN05wnqCstwjJBRnFMqzbBUfFZ3D9XSYp5B0dP+DmLF0JTZEMek6p/tQiaKVjZ9UZcZSZ3XU4jxa7PhkFLfv/oZ130nqHOP6KxZDsIiUF2sjWUnYugdsVF1gm4nBWbvILp7Pf/7u9sBzIRJHWaE0ZJ3k+gBdUn/mB7FBrt3ZFDIBCG3PoLaSdjeesfYIXYmaUOGOP0FXI07VkTXXEUDRAOkeGXIrRL34UMKprNg8m9xco9QR2+sh1tVQrE2IJHunp9qOZlEgWQt2zhq7e3h2ZSFvctzag0VVoEATETK4x8dzivS8aru7iPQby/TFDpJH2mfT45hM0hiUXRjUQG2HYIXyffFymm7O5+EV9sBzIZLSKQFPaFhxe/Qk6weAZZ7NfFcxFblyCX0RgPrxh5+lH731A3w64F0IE5pZoNO9Q+px3n/vXdxZrWDIyqwF1W5iqHrn/no6RmufeauX12oliG7bbiFVvHL1CoCss0pQJf+IM4FA+YZmZt4PnAKpcD88RGgyjb1ZB+uAmaXFtHLtMnv5EGC4X4JQGo0+unM31bA7hFQU68FzLIkO+g78PB8iCWn+l0XDW1AdA9C+J8qx2O6wPjhgXdTneoFNcJ5svsMuT+VdNVhC/Tgc7Gcf4fNurms0OR2wltbZseo2i2xh8HIBbkqDUYQEzoL7WGB8mXIw8IvBD2k2s5iW64e9fUkJJ1Sw+Q9RvnZyPuu0RF8SsQmRo14mmLGXsMV7jFOYJy0WvwPQ9B1u4nMjkkRbZNpjU1zsHYJVOcGc5+7xXloHovRL0EFfM+i+GwaMtx/ej52nirXdwi7SbH/MOgON/YQbAMmuA5C+XBTKI9vCw47WDCJSbOlmhvnCYKVoqwildanrnxrcqLYGir331l0XFojmTREasHF9EGsbN86aFhUTW/n5/Pot7oHnRiT7IJSV0NkjqC3MCy9YG6BU7TLrHMI2uZXbNbYI5vqidpIBtq+tnunRQ3Ww/G6zjhLBhlhGx7L/JWOTQpDlxYWwp7uEp9VbD0CqL4Byax3LNmaeefZZea7rAbMsuBFrotWrl9I22xDYO0HEaFr8eMRNhTSukZz1XCdpSHsevv098HyIxBpJgHFLmkD2s9//WfrJ22+m//Tnf8Hpcw/RnbilAiRit6wSujlYOE/t67EfxT03hrCKQGFTxfLY07ddN8kOzsYRKQeY57iBDfUnFL3PYdAvIgQMW2/K4RC9dPnKa6m5OJ/urj2IGfHzysg7VPlKmgP26LgGWrz+engIst5xkBjGoMMenn84lSKQDiWuauuMWBl7nNFKRPKNRGY8+M04sdPU+zJOcT8eFw9dUY5xKOo07lgkkuUPY++CKBSv6fqYSd1CYSjrF7vi86vRb1lXyzN60B3rYIyifjFj+1wEyzdvr5GOG+8Nxo203EtgyucoZ+ybcf1elu9zWY7vzCPaX2QsaHrrN6+n2/aLcnjnB+vlH3pzIkEQuY/+MENCt3gfZRCfzwHr8fE5fp4PkcousAAQRSR5hEegk4NW+tE7P00/+dFbONpnQyDuiBU1q3NxH49CCS0Ieigpa+hU9FS0vv0Io9UOyskpBBDvpas33mCQ3AzYSR9++GHonJ6j3s8XpejcKuujAQD/2YO7qb6et21kJyZfno2EQddku/fvxQY6rRSGbG6bYufqlRtvptuffRZWECEiZzYqxiUydmBLoB2VxEvjOGAikHFEqBIQjOe9wDQeAiGLeCWwjn/33iRnkj2Rd4PyBMoRchOZ86UhXEoiT3PzNna+Fq/iU5Fxee/1bB2NEsSBq99FfoFVoLRissZercN4e31X5hUIFoXkOCYxbhn8FP3mOx68+FeWW+bDq1Eo85QYsNUrTrVvj0M+GXjYAEvhzPqb0oLM+HPC2c/j2X1OktPXUl4PH3ML+sYGZ07gtAQ/V3QQSHRygK+H18JQVePQTwDayUn0JZSoi+MGwHxhZTk92mAGo0X6uZvh7KS1NfRPiMH1Ed7BrVUVqd6LXqQr1l5jK7tkdYK6WScnSjvji4Lf/bO+NXZ59rCM0OB1yFqwB4t6+/bHzFY62bfPs8g7Op9Esqz2V7DDIh//ZG0t2Pf6BREgYtOP7CB5Wr/sQ4P80D+FHWBRB4HBvImS35uJ+ZJfEAWuuR4+P6lSCJvHotzIw6xEevJQLC9iRv6WZQFGYnOfm/RsRwCy5cJJuNPZOB7VQ6z4M0m01aS+A2P8FgPpDc32hbeATzYVc1cuL0Q0paTmEfUwHvXXKU+dl+5fo5m5P60z6aIss4z00bMZOc2HepX9Fm2yTrTPvgknP9TCMbHsOhG4RFlmlp+KRvD+q4SvhEiRMeXcZzZ6CJXus8dnhw1bux9/REsH6RbeP62GawoDK4a4lj+VWzdHg5LfFd9tjeHJ6Pnd1/k1P/J2J9LCLFutWSsdI8I+VORelvkF+Tsgq+zudP+RJxQe4FLYbd2uuXb3HiAW1zsPW8TZvTqAVxjg3BH+NLaGuyv4mPhtnEDOoArwYLIJdo7ur8EqAhnzly8EJPT4XkFNcIxHVJFn6eIFlLxs28dxpu7R3FYuF3C0o59xleJYskd+bNVHcqirsEnqpBOZHros4wpgMyh93ap/9Jg9rrCjTba54EEhHFEODjknF49RenaVrQtgVQpJ3qbvwx3UYbX3cI4posfsQf0XUHMgaYLgeb7uPvVAKU1fkIw9aOwBxs5SX32TcCMN2iqJb+m7D53bDHvVwlYTxJljx/EOqg+dYi5eXEknmJRMYv1/yNm7HvDuWcTWTwwaSPiwMNFxTYN2HwFvEmHdMNsX7jjoI0xSlaE1SY8/qF1a0F8i7XX50MLdXH2aXd6UoRqkpx6vi6UlfR/u4djqM4lNaIudDCMi/iXwkZH1NNJzIlKWXElYVMxO4wNviOfDYwquKXnDqaRrB9cior6uu0QKtU9u9JJCOkAasLqVInZa0knhHpn3jPQXgPPX/6SZz2wA5mG6iK3dEWzacyESRZt2FQFFkxm1DzUWIAN46hfY+t1mV22LozBX0uTKXKpw4lgHoHDmmWBna+sWQIBPg5llEI12i9cOLvYOUGboH4Awi37K7d73QHBnPJ2ITKKTm79yMbUfDtIsQCer3P3/2zuTJrmSIzFHZmVl7SjUhqWBRjd646LZtNmMzKSbpIOu0kUX/UsdhyYTjZoZk5GaGZLNYbMJNHag9i0rK5fK0vd5vJeVha2LbHRPI/ECqMyX8WL1cI/w8PBwB7aaKNOxtATpeVYNsf7x06dcH29g6hihCIQk0ewiCJmc52athjSp1YPoQGzqdgyOuK4i8Wl6LcYGyeQunMWV27dpIQhGfX1UvybaeGVnGurAsrt6NRbnU2cbjZVIxWE1RKA2/eq1qyAs7PsxxLCPPQ7Z+Mu0j3E/9kYAk8skCHxpbTkmiToEPOAg35XKCWcWwpNlbtJmtwen9FXEHADL+SWuwgP3I/oyqccTXszC2awu3GKLgT0I7LKnw0bae4Y9eohD1A7lYGCjd8ZYVWl7HeK8+v6NsJF+wr58HhWvR7/5Is2tLaVLmGg7ZRLQJsnh9m6MjyvWGZnY4/MhWyOmD8WiwVXz/3r6BOC4usgcwBQANEnmLNQ6rdTfxXcSDTppzKX/9N//R9p68lX6xV//dfrR7feZmTlnQQnzvdVraZ1BXAIxNBiiTesWlkq32bB/8OGH6QGbfA3OX4alO2RG0UD9T376Uyp6M4Qkn3x21Vy0dan3U3ecAIYB1Y9Tl35kYy95gnCd1yhK6zlFUqEgQLXME2wQv7VrFwjCdRBtTogMYc4KI5QD2FODEwRG1aO+PrbvYkoHYeAHecssyz+1PER6y+oz5atKFK2xnfJbtt0VIoaTZ/65XzMMZ0PynrIS2VOJO9pI38BAfrsXJC2sTgiCCsJ1dfZcTNZOeLm3oxG0PWumyA5ZjkMyifBoFn3CQ7Q6agCij2EUePDYP1mOJlJOIQrPF60TqsyTpMjFc7CY9NMG2vJgbckTFodYOdQyEdVk72z/AMu0sncTNOIEReCsLSPD5Z/FAKOACT8MPEf7ISC7YT4J0snKmwaOHfbmyAUhr8GRUJ9uejR6qt5onev7wa4i25LoYvVlorENwSva8FcFYUQdE/S785ufs7xcIORuUDZpbebeOoIGDlkF3kNmsj//13+Wuo8eYccahIUVmWL2dwatsYM7ZnY79BwHdlAi+2TxMyzLYOsbwtWB8YBl2xnq2wwinsFVwGvwHTW0/R2xr/4QoURgWaQB7VW8f0CbDRoe0YG1psaUZWq/Aj9+lAtygBk1EBODQlbKfShXE9KKsBCJSCjBSxj+xbEWA6vD5xh90mq7WyIKSSDtVy3JfoBzUVYMNGdagaw2SOQ1OwQU79wKkj72XAiA7EeGA4los8GyxMAaM7+3y5x09DZimSdczDzhyswBbGCUY5tBvCB24UHfmsBkIDICV+uU0xACprEvrqDRPgjXayllvU4oE0HFVG//SX8KC5cNimYCVyigMVIrcvgE5YBy5HyC0KlHAlFKZ9EmEv8lHnE89krRPfpHgvYmB+m0V8u/J+xHJxgjD18GtLMPJzHhxAeu1tS8oT/WKTxfFZwEcztyigutSHXs1PVYWgW0G0EHx8ZLYExsfAIwCvbQVSBGj+iNiOAgRIVEkyvy2T5nFnsccziPbyI4Ni9bkfCmllbhmW3rNKvk3Yf3abH1B1oE9F+1Iq1xBV2fsLImIr37I9nU/sRRWqYUjdTPggpKK+exprQFAmyAVNoxJwMwAwH5bSi+eDjfWxHajbAh4Mqzv0eThWAiJ8mfpimQaDTdaBKf8ziNfBNXprc9Ppffkd4PgogcQ2ka/iwnhAE8C+cyD4/D8nyO2ZzvMpjOMGxH/gnkKLDAI/tvvhA88GybyuciuU2JMsrffks0wqVMW7YzqrSQom5SBMEtoHXi1HjIxHHuNemaCLoUStWnYQklJDOXjR+ttHjOk5Ltht2+8IpErTZA3Hf2moLfZE2MioNboXCX4UjjdECwD/6OFpffUUC8Jpp0vHYyy2ly/LfxqQrPAqJ3Z79J7IIbQlKUm/raKt10X7o0ma5eWUZKuc+5F/w8E8aT3cdpASuqsxi8nGV/Kws3NYVbmxaeJGYucRMYHT0IacDK4sQSxCLiR+XnqxTJAhmEB2kVAIgko8H3z4cXiOv5BPwuz1UsLwiBuCDAkbTP1+Ur2dVhE3ygbSjJ5/b70/JMOBpI83w7S1yM9JZTlOVk7IIThEec9Vm46UwTGiijZRvN+9EgQfs3ms/+mtfinIzifZHJsi0j+ms9doBv4/UPDArnlahI/4d8XYi1C81vNocahe8z6/7Vf/lvbE7vp3/4u/+TPrl9Ky3COz979Dh98ukPQqdNG2sqq9o4G6lExrif/c3PwiTyCedI83iiaHJT9P59fBWJbG88yCKIwYjmgdA9WEtXiJj5AFgdaIcUjHpjFX1J/a6kG7jK1CDiIRt5bVDU1rmqDkG6Aq3DvqlLGGyES/0xhDOAx+ZdHXsUjlU/MIW20JQY8GIW9mV4rCBSBC2SxcAWSc+1KBDsXMzFfkhstkN8KxHxecIp35cl+jsQrIwofr9AOKPvzUJG6xkNo+223HNtsKNERn1mKp8pxLjRsiLNMKGJR8JIPvtmsnJFj37z2++uhFs8245izieG8Kqy89uv/bwQBseGzqbQiiZ7oBVEtNNodP4S6cw+Spyf/MmP09Ym1jZhn7QQpPHIBgeu//Dz/5v+43/+z8zkh1z228DISTP9+F/8CSaR8SqBsZQnXACMleFrm/nHJciDyLrIgPWQ8HgGpGlh+fZst+H15bq8SzSKVfWP5IJabviFu+ypgplgYtkHebqpEMOy3YRr089djfXnEaREN/Xk68P6neD5w/5PaATGMDKYI4/53Us+L5LGbCLR14WLljVazh+TZzT/aH/PxRc/vkn5L8sbRMwL342+93m4Sr2sIReIu+Ae6TDcutRBqlP5TB1/iThcaFtGJNrDfO4KIuKnXCsXZzRy4mx+69YH6fHDR2Ge2La4UXQmd5acRcS7j5Ssg9g02467QGu/JonL+NkeybmHPQ1tnmRf8x429TwYXsbA/W9/85uQOJXLvoj9sj2ShLi6tMRB8ioCg+Ow0+e5joBXu6PHeZT1XcW9pH5yH298ydnOHJ7PryAc4MyKK+pTiJi72vqjDROcF8W5D2V0EHU31EiHsFvr+F46Nz1+TUer1xeHgJMfeOBk8i0biLxImxQb2CBnW4gE+9XqzBmzjd1uEfbg4UO+z899d+/dIw7D8tzRMZTLuoTUYoXAVDjhfB5j3mSQWPqsDLtIGT0wPEZipzi4bIt1lRvH5+tVGqWvphYWhjw/6mCX4Qi75YvstxqY7tK2XweJ5AaHnorOlxY4J+mcoD61wdmQ50PzKMpuQ2zN8EM7zaGmYl3FwB4c9lCxOoXNvcI5zDosZEVMz4/A2/P7YqydVEQIYYLUXe41nLJB1CzFA0FGsdP00FqRNfLHBxERZz4eZIy+rRArDvW4W9nDb5FsWZ19jsxxSBNHKvZA0e6UXSAb6TmgQ2igxz4tzCoa9txnH3sOmVsjFf/1m6u+4PE6h4+s2ApWj7gQ6CEiDB6i4BbJsBuBfXSYuXTAyhwidbNDWJ7BWRcL47cIjZHOVo9vHAIXIqQz5BIlRQX2DiM71lK8G5g40sSCzkZi8mNZnmvatxdYP4OS2aVQ0SSrgYQw15yBECCqqDgTlBg8z0VFSaDlaXi8BKsJWSrJMyypwVPzMpw9GQNpDbXWObexDP4kOMAVUCu5N/dJvs41cDBPe4Y/TF+Ftw4CF8PlcsTfsu4FLkMkqpgszSykj6+/nz788HYguFNCGXyvguRV1IdCvUTKe8PhrLZq1XnDoP1eFHehFel70dI/ohHlrD+DWs+sLl2UvvVxhwLRlOisUMRfslpHCBBcneIA+Y+o76JZzmq/aI4q3fcdAmNNSCKsLJaeAO8+vh/PqpmEGk3wXqSQ32IFUiu8z15IHitfEzf3txNif1byed9OFVWp3zEExpqQhKX7Mb2ir+B6ZoA+nAfDTzASqQ6cwhHIJsT1LZxzJR15ceij/b4431IAoF4Ye6cuXjhk+DxHU2M59Q7Rtsa6ap3Li0jv1EFEt4F9GS4t4xkFT5yyxS5J81wotTbRz6vjVODm9evpzld3QwugFNTY1iq8vRAYa0KKNYUFx4t4KmXOcI/l6lU01Lc2s0a0TB1ifG31zS3eSItor/dw5TmYvYxggl1UF08bW/cQVR+lxff/AiVN0jLW3hs62rofF9hmV97jguJlrh1wpWTmKoevSAWxAzjNHSVc13Hn5ggRulfu0S7Gv+7Hqwvpzm9+STmUxKqYxTfR0rcXi6qWg19jHFS7Ubg4hSKid3Z2udKx+9vfcriKqFt9Qd7FkoVAboKErd2NdIiVpJXb10H+DhfY+pwfceDsBf96Ny72TSIG9/irL6GxSvnc2n7G5TEcqX32AYevHQR8Xc6VHlLPKRf0PEvCjh5ENMU9okfPOIfi7tDugwdRfUVC44GAY01IQSeMk54xHqMLaJAJ80C03KJ4z6bOBb3jw4ccuCriPk3r9/83KxWEwkrW5jBKV5b9o3+M/JqEVLdOrYQGKlKtza/4jY9YCGX93s/JowYrN3BlGVlx+ruSGi3huX3ISsbzpHeFOOzNq1EUW3285RAYa0JS+UKC8b7LEt7Jm+yVpriafO8JXs2HA+deqcnNyymketymUR2dFQvM55kVBUfEcTFuj7tTvPJC3BQaC96zmuNG54AD1cbEHGLzAepAXBpscUv2AH26KB9SCSuTrjv8KRGEoLTnZ0wVxgcCY01IDlMc/kJNir+XLmGnAGJq1J5w0CqSI/aO1YJvEDw0Icjjpa9AfT66WAxSHD4JQfWR/nnD16vgfdjE+bXFNNXHHgMrTBdVn0PsELAZQgMeopQYpeIIZ2RDNYRMZmexOVX1+fZCYKwJKRAVxHWVebq7mR7hOUMbBNqNkH7cP3nr9RS7UUFwRYbQdhfh+fN2q1R1sos2BFTQZ1XRV24fcfkmt0fVlvC9xHba6acZiGiBq/ZbW1twd9RD+ijo7cWRquUXgMBYE1LZf1kzkRpUx4mYNgxEcK+O57XhvKpPRvugI2jA1UYiqXP+pMKp9ve0b6DdA200SCce6YZJLETq3llqo4DqWVE++C1bUX2PMwTeCUJqILZew/JMixuulzDL9Wj9abBxsed5yehCZkFhEtO05p5g12qT7Hu4Y9Sc5ZIiOnwtDILoGlMl1mDXFE64JyNPRUAC8N0KmVkf0z7HqkLf3PHMcBDrhcI1zFs1WDkMsnPlvigihh/kZBWSKTtCofSYsyBtMGhPbpp9Vjhuhh288t4q+bVtp4QuskQJljv8I6ZsR3z7Lv4V8VbC6hVx8c7fBTEWv4PtjJItl5TmKX/zXf4O9tLaynw+j4Sy/tCsMJ/vXa2L59xm2xIRJhgJrLDFb79yWrNHKcOkw/gogpS25bm/kULPHqPQogJiNeI4bGeZP8rMzRqmLNo/LMj2FP03jkfaaJ98Uthj7Fmby7YZ+03C2K9Iws1bsQ+R1Dnard9DFBm6BWhfBr5imFhlzOSN2mOuSvDEeRGXHNkLNbi4t7dPHFZpvFYSgyOPWCCAxGF9kmwuxQFmIN03ESHg/W1O00RVfEdiVzf/WZZaFKanbB0TmN6itUtgKL4CycWpMHXlChrvEN0PE1CHcfyGQ9U+IkFzUpnVDUtAUWvUkJHYQggim3tJjwHMZrt8KO9PhfMEG2Vc/iKNbfB+MIG44YRFmriGZnwRop88y3xnMQ8/qFTjjmGtxzLJJytuiDL59upJtM1I35HOTmYBEj+AgzYEMeYXhOltgBpcxBAmZivz8fxNwtgTUgYOyALQnVFjfwTUnaGE+2sDCbwiorETV7FTiQkE0V62biy7Wl6vccEPo9pYcYi7RVoXVfXIw2Dr025FDs7oRECUnmVFOhvgH8QlkpauYAbY59KYzIT7ONqtHW6JSAoK60tm4Z89MLvIE5ik6J7gvk521DjbIbKVCG4xmv2l6CAWCgzkFYkzmyoBk36IrbkfluH1ePeKluHlzB6/LddalfITHewtX3Qz7y1LAoAzjmC5w7JzVORr0GZOuaOtRkeZSFgtVUtMVjocMyrK1/e1CcjelTIDElSmvXEJxckyVLlouP80B6YpNMcxIGMFbzC8E4TkFffrXDHvIr5exjjlF3fvxEB9HRxlLa5cWQvJnKyhxv+bmPY9ppzeYIszpQP2TqvQ0iqDiRLSPCsW7l8kgDDVC5JOew6FhkQTad4kq0sNWxYt/OseY5RTi6kTaF0sraymHQ6M+5S/dO0KiIaZMm8ic641wHWM19KncMGpy5hJylaLPezF0a8ulk3V1Fi9cYM94C5mednTIfCYpr4+h8PtLcyooeOnyN483soVDtN45ZiFVT0+bEG0A279YkWVcjU7dsxFw2muL7dah5gDVuUJVMQj+3s//CR8Q+kd/ph6p2mTFyI9mG5TjvCaxoppaa5NozfCqg5R6/lwChg2uG4/wflbn3tf0qoE7yo9hwcTTTTbRsfL44nLGMjZuP8wzeOSR80U+ynVnQJPnWVrmXXh8jxEAhxgv6WN9jbWZSGYNbyHWJ7tW1y7njYfPUgLwLbDBc8GHIr2O4KWJDrK65Hvm4R3gJDyDHvMlXDtR3slnPGOAflawDGYLSzCLqKjdwmR9iYWY2usFrMNXH+iQlTDUPWTZww+PmNw9ZRq3WlMck1zuAvR7bVSE6SEggLRnMEllD6Ksx4QaxW0CfGdYsuhhennLqtdpAFJw+wVKkwzqBf1BkepA9LMYqK444VEDGrOcM1dAtQOtuaBB208pmPfutvrpJn5BfzZatOaa4qUfTzAWyKIphMDlmPY3LzC9bnq34WwzX+C2d9YsVlFtBI7jYHPGkZsgtWiHZr9VcvDdkrUrhwxz0MAk7yfxobHCXYpvCWsSeQw7kIepaWT2Nye1bsjLLFGQTUmo72OY1Yg74C5/B3TFokt+kLZs1zlbwNfiTwsV3GWN2DstH8xgV5kD8u/cgra7j5xJaNOYanpNKySB3EKD9cwTQJ0JGZbzOrexMbGBIrHToiu1n0mq6MjiAiC+ibhYsZPOvupi22Gkk1wmS83nt+k8jedNzgAAcVsHPuRqEA+2X2BoMyAPGamdunPzBF94XnU+Mlo33gViKHlU1mLYEH47oJoXTLquhNMZSA8b5L/ZkCZzft6Op+S5wB5NCsM0ESwYC1BHpFa1sM2O4haYrWdmtBVtWh0YL142GT1kEC01uo7kVykjLZanmwd5YcBS2ZcV4ewZsRsG/ssJgDriHpJGiyZ7Zd9Ir9tCelkbk7M6lGsULMeypdInOHth+yubbUe2+B5mnsdDbx49ma8ZToOtlm75KTkN1CkTrIECxp9cYVwFQJO7nuyuWVS2ADbTBkShcb1rVdWOAqgDF2QxlmesCNdsIcWTntts/VHeZSt+1OJSbsdstHhWYQ6hKM+vnrghROUefzHAwW9PERdvPqDDES+vKjve6xAAOBA3E5PMKgCXzYmBkGg8yDMA2h8vxBEDBGN4Aw+oAz0UQOR8P2QsAcZ/Lu+dWLQWaEwVAxbls3eDhBKUKPZox5bMwzkjbaUEfyO9yDVC4G2dlmVDP2capjE9kcAMaylfyIrNhJEJhGSFSVCWQ9Rxp9i8NPg2ZhhWB7PJOV3jhHBw9MDcbGZ912Rh8dhcIY3mC/v04p+FXEWV+bTsEwZyvr97Qp4LthkhPXkAAAsPElEQVR+gizY8+FEbxVFGLY9Gk4LmKzsRB/Tzkad9MADiMM9osF96JsK7wBrl0G1uoq7FFiF69wF+uKLL5zkHO3XBvn1H/7oR7ESaGR9FkP7k8yAItW9vfvpBrOsM+baJBaG2NPgaCU9BJG+1DgKEqIGRvbDguhra6lejgME3glCckXSYL+sgxZg80zM8ElMrwmyRo8wM6bvoU8/+jg9esTG12sVsDf7OFmbls3gr8+sf4SNOzfXG0e9dBl74Ttsxs8UVl9TSfVqLCAw9oQkrchX7+zuBC9/hLAB0RCxX7McFcO7u7MTG/Xf37sfRiA3cZylnyT3BU/ZH52yd3oKwdUHSMlg/yYm2BAfZBchJ8hhnzdRNhZYU3XiBQiIUWMaJBT3RUiHEECs4HlPSY2WgiQiuWQ4ZhD9RRC4x/RP9s/zkDlYukPUixps2JdxfDWJW0j3/CZYRNNhEYna5EyTTTWbWKR3zdXltIxTq2mMSkrI/sUeyu8qjCUExn5FEo2V0Mwglr50nSsQiEifbm4wmKA3tBZI/oqhVQjhnuoyou95PfAhNZPNu8q5j6LdAyywarpY37gHSJSQPKftVjdt7tynYIQUbI7rdUTDChBiU/aKiqrotx4C7wAhZTGrXto2n6yHt0AlSqESw7IUAqGQ5L3I6ilidl+lpdU+0qGnuJlUireEPXBtls9ziKgvnUN18aDIO3e454Smw8npFCudWgkIK/7sx+nzX/869mVvPbZUHXglBN4JQlI48AwD/55GxKEqbJnS4liNXCn48yzC3+fIiR/PnmUH03HeQzoFFZt6K5Q5fBIlDIFbw/VYuFQMdpFzK+rRYH+m1mGy6mEMIfBOEJKn9UuowDTY73SQru3hNfxcQPigSs0cDnp3UGXpc7Ba0yyXZKViGSF8zvpbuuM3a1rxYFop0/MmDv8gsJqKZxEgPJYqjiWHtBT7r+Lt2dd5gjyLr57eFgiAAeMdMhmgucAeh2UnXcMFS3kqnXvuKuM1i8m0xCZH36d1DlTR3eE1Z0b6FOV8qI6NuvKvxrs6dh78VmAhEdXChp0EIdl4cu9fkBWk5Ql/8VeQYV77bF3Zwtya6vPthMBYr0jlPC+ntb6HkinKjPv3MFgfyJwHTDH2hKsGqvbeM6rXdJyMmCFUgiQEiQmyeP4U3EKDyCDEqCjfSSqWqXN1jKJGnTZUYfwgMNaEVA6Xxh57/JOQNGyijycoJ157tcF/j55uxtpQDwJCFQVRtlK7eMuGSmFCvrOjSBwiUhVHSQXSuRCVwwI2qMdzI/dRQVvDj2LVcVXiXxPJoVaIWBrLJlbfbzkExpqQRF9R1bs+KwuX+RZ3a+nJJjYVioHzdqsEMol11clJ2D8Ob3ukmeRa+QALq732PoSHUZPF9+LdhFrDSO7a++tI9FqcKeEtHVcx3k9q4FBM/bITXMA0UZBU7C6x6MHQNqg8OY2hSc+bniLEqML4QGCsCakcJolnaqrJSoA2HETwbHsz7rsEMcGiuQ+aX7qapmfm0sHG0zS/cgvkJ/fxLlcAdFOJrYf3f4jlIO68sBpNcsDb8a4QeefW3g/1/8PtJ2nm5p9y1WE3zUz00CxWU5k9FMTVaSHlO+FqA1qua5fqaePhV0HQxTpVNrP6fosh8E4Qklq+TzfW2fJnIVwgMMQlL8diFCvGzrNHeZXqtdIsrNcJxvOPDzbJAwuG9vDxl38X1xDyvZYBh6/zae7yUtpZ5wo7KuF1Vqfm9N100t5DlSiziYPEHSC1zr16gN42quKpBQu4dPlywRaW6+JbjEFV0wMC7wQhgcGxbwkNg9CzGxl99jPcveQCGP6RWHEasHHtZ3ezpA2k17IqpJZqEEixY5L+0t7WASJxBBGsTjVZN7xQ7D3+Almdqv6Y7IJQT1Ap8uqzy5vXpZXcnUC5G5jrCn0/91hVGAsIvBOE5F2k965exSZdJ13hOsXnv/2tpBEDqKBgAHHVOftx1QjBAd/5GiCmjpdWUwfthg5XJuJ2K3skL5gZNMTvQa6XuzDVjzcKr5V3KbmWZnFu1sYa65W1K+np3fvkLfX7vPQGAVVEFDAcl493gpAcrB63IttcqX76BJt2IjErQ+AyK4erh3QlEXn2Y+CRD7y2YzFVSdslrpt3ILbmNMRDxsbcfDrB/kIzNCIQfSNYqM+yth1x3RoR3ynEp0H9B7/7PX5rsdcwgxNnbCDErU3LrsJYQeCdICTtEWxxjcLVo8VeJlMQ0gQISObKFeQsKLrmXywaUhYEwldrT1YOpg27C75L2GRAehFkpwDilLLVhQh7bMQqarfwGmxdP642U6b1mbcg1rM6q6e3HQJjT0iuMp4Y4SEpExDGOOJO0sjIkWQkqJPAKkWMK1GD6xGeC4U9ARK6eE2jSqSxEg6D8kVy3geRRB6LKlSEgghrrIYKGqzlfE2mrMJ4QGCsCcnJX9SVWVvj1uo8+5ZTxNn/hCKpRBKLwyvGMVCepaiO2FwbcpPc929yv+jS8lI6xBBMV0MkcbjLOlSsbC8UVcYHEb3wtooYIwiMNSGV87/GOvaPOVyFIGrsk2TFMLzwymEs36iv2uVKuUFzVj1Woa2jJ7EaeZa0vHI5bW5sVgvNKyH57rwYf0KCGNy7bO1x1RzzZajSwWVBSC5TrwiuVbGIyJqR3z2TNukUFEhk2lRz73OI/Ye4Sk46IiKdGfkV+ykJeQK1IX+7NPpt3bKKZbCe+MmHK1venBVfFhDl2Q73WPaF9MYTtIOXy8rvot1UFKa2bE0uOMrgF3NHniIif5RLIZRlH21c7PGIpyth2TXyUIZsa8DBNGwQcztzW8r4KMA6KejEhhblRtkWz++imngX+8xoX46PfhZ1RXbaYGlyAz7ZN+vViqrt0wmc2cPEWRTGO+Ltu/VYfwSFQMaV8b4iYylgspBoNe813xz28ni2yCinKOZlX7apDGNNSHYTmIRunOJogaZ9ukMMK74eTAWIyDxDPh2MORLaRXNl8qLfCedG3V4bS58rGM3DtlqcH2EEBbbPobEu629iedT9lbbtRJaQ7iGOP0Vk3uTWrmZ0lSh61UOP666Wso3BLloGgysuDfCKLkLbHi2tauyysYi4ncNeVZA8I6upEAixRF7ZUoh4wDmY/wqsg0Iok7KypVEmCNqlrTfPtcIdJ0lFJv3d9ui3Lj5tD9EUQXm0pYGQxfg25250IJBuBrbXFX8G45J6/ejSRi89lljcwFhlWEol/SnGxymK9lGmafgftuXQOgnDlvRTu4Ei84R2u4UJ/VWdq44EVF3HKSSmmgfTH9W+xiBpmKaLm+E95AQtFdW28I5I2zUuqSgo0W80uNj34jTOPvFDW30gRcCji4Ec+3mRkNOdpR57QhIyWutcmcf1JQMwyYD/7ssvA8gXAdgqth7msAw6jyngZ7iDEeFvXF3Fdh3E2Kylu/fXGYz5MHo4cxM1o85KmmRa3Lr/OJBi4cNrnC2hACvSgPQiXpc7UbOY4/VuVA+DKUs3OOPiu6bdNj2wn8yHh8AZrIq213fS/vpWWv70fTrSSFOUs/nVQ+xHNNLqJ7fSHsZZFjDDLPFs37mP/bt2uvLBTZDGKx74gwIb4x8EM4fIXgRvsu9rYTK5Rtzu5nboB9YmUV/68H32hBiBBClnIfInX91He4Nr9pRQxzqpVlVbe9lya791lOoYXXW20Jb3ADsWdZBy7bPbqf2LXwGv2XTp1vXUgVq8ptLAQuwh/ejRvpUffsREgP4ifegCm1MmFs+997DkOjM3F5PViRohUhtEoPnnzg7aI4CviQlo/6YmIRTs37WZ1JpYuNXo5NQ1JjX61NreSSdNzwYplMad4DFgGk2UKx+8n49B0IVcQL1r64t7aKgspJOFZpz7HTG2LW4ACMuvW5Gc1KJ9BRKNNSGVhKL1UTut+WEPTxVVX+Q8R2DtMrjO2pMAeYBhwUvLiyFG33qywSzIyIJMp6gInaKQ2gJRJtEqP4GQNHLI5B9siBI+Z/0pZteu1jzRGN/FboT7rClmTqWE3f2D0M+bZYbtM9DOlnvbIDmzpJNBF7PEp4PjtA8BuFLIMp7sMOiHmPbt7ARxDMI4I/tB8qmaNIlgpTFH+WpfgJcnzPLHrMbNicvY6jsCGaeS9v521zejrWGYEYyWuA/2sa3NqtO03xDWMXvFffq5yASgMcdp7m41WAG7bcrkoHsKQutgbPLe776M/DVW113O4GrTk9FHV2pXQcgmVtk2bPERRD2prXLyzeG3SscCmhTWWqpWZYX7FPCcJk19gZV7E2u/rR5WZ4X1erBxC1dW0tazbcwZzwUROWnO4S94EsKSIFxdB3hWnKZ9AyYyx76rziRaKVqA7TA2EzMTaWdjI024SpFeGvm6EGeRJCqTjrXJ4ugmyAz0mJ3Yw9hrNAycvRRAyE8bnLleZrLY13nmMVVO7B7Hp1NYOzCCb+8rgaUsORMQa1zgs05T8Vtb4SKiUcFi+Z0LjvcR22ykE5AqWDJSmg5GK/92VuZ3qBqRMTTKiSEqB6vhSTYmWlb8tpJw2UK/JaTShJiJXUHiKoglgNx1VsFg64g3n0TvpGEdZTXxTD9d3cp9iHsN1qGYvWPvRPbYp8CuRXui7dRnIdQbQh4emVHCEH7eP5GW6d+VPpsedh01ZDiQG217LldSlnDUfrjsbpg+pq26belBiJYtEUVV1uuY8B3neUR6fawBnL242Y++0U+Jhnrsex/VsBoE15CV57xEAsylRWNe+Ai8IPYdMFnsENBR/sJj3+XlQPQpWLuvHj0sBkskEOjn4QQMh1ErKKbKn3sQ68pWDhTzJUiEWJzZcx6WJwa/e5SOsRq0j4VVB2mCgT9h4ByuMjgAIoJqQiXCnB7D+onARAxTk9/tgyIM2xPN5CPq97cFkie/sL08F79jkEU2EtkOEdD35o1kvCtKoC2xe8hwgG2M+Ci8KDNqym0zf5RpVZEy0DC35axI0hQFmIpnCTxieI7vY5C2LMsY2u1eMWDjT97lhHxLYCC+OUX4WAksx0TRR6/688M+5f9myg31yfwarSfUoehYoajLmCiTb4UXTgDqQYbdddtr+ZR30TD2rJ0AmcErhDp2MwgFus42Tx7BPWSUFV4vg5gwFLGnySs78OGnnyKkOIiVSzcmG9v30ir3inqYJ14g4SHmkBcXV9Jd3Ka0YYmOYc+oIsqIKooPBy/GeTQyN2IYY92jaWxHuXoOE/lQImxk8OfwIZIFMlhQEYq3lF0gdhlPkuE74iLfMM0ohEh1Vlw8juYzImixKDfaLJK/JEQ+XuX8udwyLpK/kC8Tcwk/M5pe+UoZXgqjoo4ymUSnxC7qKjJapqtjcARlwrLQC36PNSEFTADQITzxbxEw6KlOlx7ZuPvFILYOLx6SMq5S7CKNOkBfzhXqkLtKuxhR0UXJNr+9WbuxjdsT9h1LGIxcd3/AyOa58IKjUSV7ayEw/oTk0EAzOk7WqONEWykSq5F80+i09JIhdKbqskFVtKzGuFrk7i3iFiwX9k7xC9R2l8AGRpcp/aaX/dgr7Xj3SR6dOi5Gry+pvYp6myAwvoQkkcgTEdygrmBq+BgJmGpCT1ktMksdjELw8AXTHIgfuE9WdxXzeIVTUqUTL+OnYPW0rtplb1TvkghPcnOcnVj2cdqFWNkRNGbiZmwbCVmN/U9uRTSl+viuISDwZRNle4uJzXF8+ZjIPjrqr3r/6saPFSEJgPgroFRuKZuT02mVg9P9wQ7mhVfSJu4pewBWyU/slLCKGgAUiAFIN+eGGuaKL4fJ4jnOVzQWqVh1DZNeLc6A6pzz7GEscoFD1wmYbLxD4gUdS0W7eJTj0KPGPmltdS2tI1qtwj8fBBzTjBmF8Ab8yOM72iYlkuX45z3Uy4kt5zF/TMNForEipLKLddk2pDUhzaG7XTQH7t2/F9KyveLALacRGqQFGJ66a2zfkOckvnm1tb2VtjmX0di+5zuKymsT20jCtOudAb69u5tFt402LJ4uJjWCAosHd6eVV89PhrNi1PCaj3L2LJP42+CM+rpQpjNNmfZlcc+XMZpm9F1ZhnGjaUbjR9OPphmN/z48F232Sw0I2fOMG0XjfMEQTfIv3jlexJ2DuP0ryxntk7hGGENCAgAASwlOXnEUnWKfu89hG/8AUVYXicOUDByFAl3ylMF85I6fPQhCRBqEAUhjiYc4dDOvp2zLHAL8RDUkZjYjOFdSH2+bA908BqY1PgO+HBQHdJg/aiQJ30MJXJm+eGe+KL6Ij7RlPssqBrtMPvwu400jMnlgWcYNE51/GC373BvzPVfXOcQ8l/j78SPgzAHva4P7X/vmmBPivIrf4R09IorxNk0xiQLFSDuGhCSyiwIZDWIFEek8oCMIIlmy0ta3hBCCB749vBNGZs3gMZuzE98e2BUzmQio2ksooHqWYcEGVzf/eyjhewQRuoLxHEfEczA9BymRzmZ5wMoX6XN8VM8LkT03xpdRbJxjRVzx3rMXDzKjPbTCvoYIt+xHzhqfwwNYfxXnYbbJvOUpfZl8tH0xp5DONgoffeYGAdpe4JFhMQKDspDvyXcQEG31hvMhvrHCbsdL2ubQnQvk0Tuj6aO/vDSJzuQcT++YlfHmGytCEgkDqQugeNiqcGFlDTcsAERX9aqcTKGGo+KpiDCHaok2GXwvC9fTf6mSCJBHfTbfz6Ci0kb0rfaDajOydLuovDS54LdPvF6zDSeolk+SR7f2s54/oUWhasoRgohSsVQ2s1GaBkM3zcGQ7sLzNu2RFZymnseqwAQBRtGxun18+4PooLpyTc6yDraepbUb10Mk30dVR6HHFqo3X917AEHJ8yNRZOW0H/qHEql0S7MAUh0jMJFY90jfQjXG/pZhEf06dd8kTIUroVCLVoDnaKoCKf6XMPW2IXqtb22kLmyvsI/9yFlRZZH/bN9ONjffu54++/Dj9PD+g/QIc2t6m7dPOpGzHwvo4dVxwuyEsgMO+O24XWd/ewxsNrwqQ/BA+OOPbodn97tuFZxl7DRhrAgpdyn3zRnGQ7YmLIyqMiKZPo6QB0AcC/hLmko9FCbnAKI6aTs726mDe5a9HnctCtG1OnGXTAtia4RfrXHt4jXQZLiythbaz3WQsTRDPKBCiWwRRF1QhwyinKX8OTSpdTysWTDNIs/iPlOEFJGbfLd29zHRtQgRoaVMnJrV+nDyiryIanA1mGGwtdLqIbF1TF1ZSgMkHHPHc2kRgYoTwPXTa9iZ2E67LYhXGNg+vifZsElQXk6c5pawJ1wSarcPoSM4gZaLmlKYGpsi0ySEPstEYjttyTya1RLcPgIWFWA7HD77e56ztC3iXA2/d8H2Hh2mvcN9YI9WOnvbCf60vhuYAtE4MWgJauio21ccZ0hU4bW+6JYTixNuGLzhuU/eMoy1rp0IBBYwS8qGqBWm1CYjTCz5oIdIopBB/0muDrEKRMrMzugPyTTQFPyz0jxZNHEWIPqf7xKcJRuhMmpDoAcCnrFA5rUseW75bxHdPLrm9IwqF2lpDlhGXn5EUI9vgg7FZpg8dk3Vmx7E678mDRQZPLXvQMAshiC2KxIrLM/WWbcCWTP/xXNuj96/Q18wysz1yZJKmMHykJYpgj5lVSiJOkw791jJaJNKRlnIT7te4JFyef9cn7acxsY9JgYQTyPAWrg7xsAqgM6vuEpCI4VLKDTzLrriGJrOwLtpOIE+ceKC49fgufObnwOZMQ70MQYW0EgFcWNI5cUIIhJBlDxBaTMHAaaFhxxM0WcGMrtlxYNfOWsQqD/L4L7JND0PZ01jPqP4nQMtIb7GlYIyONC2qT9MY7aigjIR39OspsvLy5mAR+It0P7FXsZ46tNa0g5siwMfJREnUdtLdesikWljViZviShElS3rjbTRpHaaOTs/+ommR9QNQkWgDrv6vQr038mmpu5jNIxVFmCrVjRULSr67iQVwCq+7FXAjomnDKLOUUYEOmvJZ2GsCSnPJGfdFTBDhDuDQZ55Rn6HImsGY44lY5b3jSQC5bJ07yxu1B9tbB94dbH6zsrITzGEPJbfEkcnPXyEVVdaksnDd0gOo22ZYF2BThn43H77Tcqz7vPb3IThbOIPg2Wd1RUxIMr5kOsbjYsV9Rw6FeWPJDpf6siLN/SYe5kLO3sua4WAuLrixUulqNNT9gn48brdcYKUSEhDhMqqo6DK67b7TEXlpCVPHbjFsyw8/9h+hkFRd8hjTUgOdICugKv4o6bvC+FsBOJV3Ow8B1bKeS6fCFrOc2V5JQLHu6JO9yKG4ucLiG386ABGYmLyKmMNpoAgHP1hyqicWCSCI5mtV2P+OR3pg4pHEkRJvn6uM1EH8RHK9M+n8aVtOAtOVHGAXUTbFjXiDWewKVbFYdsl7ozQZyXJMpdlWz/PMQOYrgzmK9MYl1d3wZLnBdtitPX7YAuY/lDlch85Wz9O19dw3XPUZ688nR4/5g5WYzEyT3KvjPvGsTIHWwdLO9XgHJA9Zeu4wS1cnSVMp70jBE0nB2l1kTbWmmlzjxEIB3NjTkjuCUTuwJtifIDwiyGQ1GgT8RmDmActD0l+Uz5HIgbr/C5GojUFf34VoVThL3+fwwUirdGhL7mrqIP6zzMOZeNzwdFKq4n9UVmy7Zb8zofoShGVy7bOXM75lOWv/G40X/nm+e9A1IBx0WUqPxl2UMR3Fqe+6OBInQHv/Lts7xmRjMZnosz1Gj9Shr/IHH9Bb9TH6zosspLVeS4KHu5juIa9XhcPIE1uMy9gpJO7iRDJIF3nMu3KEpBA2qj0dpqN0ySXM93D9hAMdTAjMDV3mfK41g5x7nYH6VesYupSLi/gYJuK99tIe48zsY/xigSU2Q8o/l7lTlEPgG2hgeANVfcaisLVZtBLhYOpRE0xdWw2C8w2fhGP5l6RQOwW0rYeEp6OUh5eusWIs5WgAsTlpHe/oVRN6Y7pXB8MgnuBsg4Qm9+4dp1r67qFYRBJf/ODW+Hbts05xxJtO+A6tzYZFJDAvIE+rGtgo+3xBq26f3rWePjkIQVTMoNvOQowvHuVV6+U3r91K+0iqdKm+SySxxD7I+4+5gasCOM169Do4LykdXAYaGody3hp30BiJWYqPg7NjKgdZI1vEhGsR8GKkk3tTnTZN91YvcKNWdSnmM11Y7O1uZlW6JN7NgUls+z1OiBqk35sozWiKWiJaGn5csBLnUXHxMt8baSo9s0VzDMdr8Psc5O4idTUW7PeWu4yjsJY/ccliGf3uBUw0FHBHtLQupJTOrXKTd0ZbhKvrJyk9d5aOpl7H5UuxmjQYt8DO0x9h0eK9bG7cQReYJpgnSvu1xa4+XvMwTqeRYKIkK666qkqNjd1mvaO8wiPMSHBZgDAJcS9P/r0E2aYbvqHX/2KC3pH6aMPPkgPHj4AkSfjjOGSV7IZHKVnItchouNZxLsHDJrX07e2NtOnn3waiC8CKxbugixK2toMvEQzj0h7knOlLRRiRRwP/xYvOSvuIT5HiRVE95xKqWCHs4m/+lf/Ms5wLGsfG+E//PijMFwZ70Egxfaz+HT6HJPH6xvbaR5E28Gjxo33rqV//5f/DiTZQXzfTj/4wWdRv0gq4i/QbpFW8bp/0/T/7p07tHUizqj+w1/+ZVxVf/ZsPc5PFP1ev349PeCMZREv7fZllwlHkf6/NS3vTePE41mUZy+eQ7XpQ5tbvcdc1b6BXfV1CGbCGX3/MF0H3k+YKPZaB+nf/MWfpz0mhutX1mKlmOUYwr3eJPuWG8S16PtlJpgp4L/LEcT1996jrYxF3HoVqdsxNs8wNT0DjLXxcPP999O9e/fSD29/nL764st04zYThvYeGtiiAKN/8tOfprtf3WW1AQEklqle+t3BRHrQhgg4AOkRP90cpLu421EE1VcaWUM/kvF0QvWMKT09iv3mnSct7GSg8qXBCPj7Z+uHaRvCrzPJddkIIw90TkljLP5W5DlgOZ8JQx6e1+xxl2gXxP74o4/jQHafQ9krqyvpOveHnHkPMegh8u1gn0ACmobAPKD1UFYLQqb3WaIJy0ISEEglokgQHoYu8O6AdJaztLSEQzIPfmvpxo0b6fNff54Woy6vO+fVKGb1wvrr7t4u50lLYRRlifOnDjdDHz9dT0fczmX6ZfXAZgKz/2oYu+Qe1MFuHBweUK/WdyQir3M0XWEgZJGujsM0D3t9v4gCbgNkcdZ3Jrd99smzKQnIg0m1NR5w2LgIXNqsXE4WEvccBKkWfcz85Hvw4GFY8tGi0TQIrDi4Cbxm2Nx7ZeXB40dY/GmkD27eSl9+8bt08+aNfMxAv59CxDdv3oxJRwK/BWFsPHkSk41WmjwMZVYAqVlNIDxXpgNWTOf+jz5hUoSIVSDWubb9bJB+GcOdPVa3NlzGHYjMiYtmB9s2wF/V1Oks/oPhRPrAgj5tYlQGbi3KDFaXNhMNHkgW7n1grpmcEPjx7M3oHs++hO2OTVneDcoz9H79t7UxJiQ4ePqtpzzPifSi52GqOmaMULA0ARiQ/E+Y1feZSR8/fcoBpTsfMgJAZ3iDgy2iMTo5rvh2edd4STbvFUnzh+/LwGjKxly6tBAEpjg9yor3ZbpczxnXVNRTpimTlWX6bdtG67HNFlO20TQj70Us83j+Fc++f66MgI/II1tZ9rksx7TxzEdZT47J5fDsqpjP4fgRdRdtKt45aRSlnK/7uXaUcM9jUFZi+Rx2s3pZiJNX3qNm4Fi2T7Fvo27riTiI44SztGUmoD/70x+nJ08fMRleSo8ePIbQ1Szh0B7N/nbrOF1jZXWicFLdpXwn1NcGKtScwNifI8lbuxJ99vGHWMHZSz/67OP0yy9+D0txLTaUdx98lTY9byEIPJfroL6IAcIl8sXUlgdsFDklij4z4mhcZB35kHDdP3h1I3Br5N05whmN9/mFxM8leOE97Sua+LK8IpVYMySil9Rhf2pOGBTkHupcGK2vrKdM4DvKDiIaTWeDfEVZ54jIfKPpRp9feFdWElXAduqnivGyCP5JMIayX7Fo5Kji0xWkluYwD9ZpddLl+aUwfrm8tgThXOOQGbUsVtUmezrVs2YwtWb4+199XuS/2NdY75EEQZ79T9NNdNKUyhzA/0+xCa8x63qFHD2QGNRyQF4AG4P80nevin+ugNCAME6EKt89jzhl/Lf9fYF6o41iquEC6XPC16eVRRr2fZjhD38oy3j++3UlOX+opOyBt7Y2TmE917FPeA2Bzy/+39+nJdhd7Q6uYQvwF7/4eegWSvS9OKTP+5/XlV++G2tCUhzsZvm3v7uT/olNpM/OXD/5Xz+L/uuNL3CGdO6HQouhhEz1PR4QYLxVX3rGhLmB0OgE6aecx/27jxAm1DkbehbChYcYlZyYmA4JnUhRi8Pai4NgrAnJNcB/HWacYFTUiGLtr2lAOqCVJ91ffv6beJDLzpx2OeddHJBVyu8nBGJE5Qbcv8Ws6RE50jZYOdl5JAqBG9mmuBdfTFxizsXxYKwJycM6g0enEcrf8Z2B5NIvMM/CxYF3lqd6+v5CAK6j2O/lSTIjwcD7ZTa6GO4CQ8CFP64noxj0x5VQ5aogUEEgDtwrMFQQqCDwDSFQrUjfEIBV9goCQqAipAoPKgi8AQhUhPQGgFgVUUGgIqQKByoIvAEIVIT0BoBYFVFBoCKkCgcqCLwBCFSE9AaAWBVRQaAipAoHKgi8AQhUhPQGgFgVUUGgIqQKByoIvAEIVIT0BoBYFVFBoCKkCgcqCLwBCFSE9AaAWBVRQaAipAoHKgi8AQicEVLccHsDJVZFVBB4ByHQKC8ExqVsiClMGElUvNCxkhcIqzuj7yBmVF3+gyDQkEg0YaQZkDkcRl3i7wTbbhpS1H9q7UX7Rn9QBVXiCgLvAgTCZoOrku4aFzFi2GSN0pfONEbznmIiN2ydvQuQqPpYQeAbQCD2SFrI1Eys3sh2N7awvocpCCyT6upQIivZv29QT5W1gsBYQyAIKaztuC/CiN5lbFPPaTixJCH3SmMNgqpzFQS+OQQQJyQM6GkLux+WR48wRH581MGDwhweCLoQkVYyK1L65qCuShhnCDRClsBqpJv7B1j/r09hAxl71u2dDr6EcPnOclXYIx1nOFR9qyDwjSCg72pCdnW+e4jrDDy+1wtPtXrIzvK8SFR9VBCoIPAKCIS/92Dc3AuxPIVZVyyPZhKCjHxZmix9RSHfv2gbbQ+qUEHgu4EA4m/9N7suwcAFwWi8Vc8z/s7xDR3V4qhqAmdMma4kNA5r4+A2I2yd1Sv/JntBmTXS/0EeDb5hn21zP2w80wDbVoUKAt8RBLQqzz8+wTv1GPSJatAdsEF01KPbzNTl1MSzbh//n30i5yGsHh7k9P8TjrzwxJYdP5lX51z4AOV96bfGsr7twPFxaiG2b4XXCciKiaEip28b6lX5QqBxGk5+T8Pf6jyOcq/eupbae+20hQMuJXilgXnXoBVcHurTcxZ3j5/hb0inw7p5XMBXqg5qtzY20y18D01CeA8ePEh/+8tffodQdkLI/77DSquqKggEBBqDmh7aBvglXcGp7lra3t9OV5dX8YU6hy/O++GTs6a3bHyR6rNTH6UkT3NLi+Ghrd6bTIeddlojzxLT/4D91YR+QFE1kq37Llck18KQjwRBVSNcQeC7gwCsHTskHG7N4T6+hVNfde0O0LObYLWZwvnWUa8TyOk50zM8ncn5HeIM93/+9aPM99FWkbeOlELHXqH0GgjN7zil+u46M2wQVSq2r0IFge8KArFHciPRZ2/RxDVkH/WgcM/OyjMIF8/o3rFqDWABYw/E1knp3ilen3V0bF5XLL1h42YY4uEAN+Ldo7hGjIRzP0bi38CjRTeg8rwr4pM2hMSx2iW9AehWRXwdBDiQ1RM1rlT39lNzGYECQgRQMNyx6+FZoYNE4qq1xF7oiMPaGjp5P7z9IS7m0XyA4ERi3cMfn+COHvZPx7YKIdY3d3BCvJVXKYnruw5WCTFXoYLAtw0BDmSziLvV7qT7T56m6aOZ1G/3IZIexMGKAqGdujLhG3AKxdY+0jnT3rpxE9+btbS6vJK6sHpbu/jgnGqiDdFL165fSwOke3/7879PG5ubEOI/AxF925Cryq8gMAIBDmRlhliVoJUOH+39A1g1XarLwymrg4WDXWPpSdvb2+FCvc9e6Cc/+xskC0r76ggh6uENWtavi+jZqxcNVqW+rNZ3SETV4jMystXjdwqBRvPybJpuwttBMHX2Qnp9njjFUe3Rceps7kFUENhpJ/XZ/7RZWBQmyMwdtbczkfA7zmvyhqRoPA5vISL3UO6zpCXZRf+7v5J4jVMZNmeLH/k3JUQavoklLufNsoOczky+OxcsltgurGYdQg7R4rkE4/dD+EVwDAQNP0cnLoU/jmzAygQG4iJf/HYfSbyvGK8IxBelDmEcB+38Gi07l0OOGM9cr/lyG3jyh0X7GN+5nnxoH9gQ1UUGn9xbs8cY1lG0021FTuO+N2cpvogu8MA2R8W+P2t/5ONdxER7yGm5xIUCgXuaeMtL4iJ3lFPUoEKBHFncFBdW1pc75ic/QDNxjf357PXFtHwyx2M9Lc8juWsfpW4/pfb6RjrmLGh1aTkdtNpoh5+k1nE7Vp7j9nHUG3snGnAC4roaTbA/moyD2l6aW5iPVW4f/T0rtBHz7LFc40x/AouoZ+mj1mGamZuL+CPqnptfSK2jA9qXB1Z2cmpqOprfh210D3YMK3mCgm10JLrBBz0LSV0JkDJ+TL9jIEH+qeZU6sEFuEednp4J7mGC/WnrqJVmkbz2QJYO54FNjiTqE0yWIGyD7/39Q0AmJtQ5B5xPbdIrmR0iCO/icN79MYjUpKw24y7QLd+cszNIdpsczOM1/ujoiBsDM6nVOoqxkUCt03tuE5MoQpNGJHaCPep0qAc+iLaIMw1w5oh87q1nkR4fgjPxjnY61g5pEArpDXXaNE3dXcqxzw5+j7ZLhNbVZh8vHoqTEkyHrYgSZLkk01l3YFemI9I2gN8peJlxrsHv5cuXSV+HC9tJbeCrJ/QJ2r64eCnStuivOBztogWNHlPGAI2FtcXL6SP2Np///ovUxuOzq4LUNw8AZ2YBIoBuHdbT9ffei04KOIGjiFzCmIMY2hzWSgwCoc+7xZUleo1mOWL1GkC5dPkShLmUNjm4PYGSPdD96ugwXbl+Ja639zcG6RLnU1Mzk5HGDs9ynvWDH/wg9RFsPH7yJIQh6+vrEHXPcTkXyhkrRvncm/H74UyvY/uly5znIXFVWur+dJZDdRGjj1aJk5mIc+XKWrDkjpPvVleX06/+8VchZHLJWF1ZSYPlxYCniNdl7Obn52HRe2l7azsQcAHE+t3vfw+y1tMkNwRE1JVLi2GewPTb21vpvRs30h3StNljW+6lS3MhkPrw9odpf3c39toi4GG3HXVNTTfTFOXMcmWnfXjAhDmTbpN2l/32LPgkkjpp+y1RP3j4MDgcaC9dXlxMOzvb4OM1+tobEt8MBPak20mXgYuEtbK6GhPEYesgiLVH2jn6trK8lDrglNuQAX8tJvTtrZ2YnJe5k/fRR7fTJFLs6ZnH6cs79ygLgEPQS+TbgbjmwPv9Q3CwQK2Gc/0klDgHgJ8+epAG3ePUPJ0Iaqa9nCvNpfXdTRB7PS2g0XDKSlCbmIzvSQ5pm+SbACAe2Pa4pj4A+F2QfJmVbNDvpiMAVAMIXhpsIvlr8duJxdmkS+MWmQ1t1ICZs8X19inS7B62YoWykYd7exBlF6LtpL2drbTMoJ9ChDE3lb0gnY+ZJeRpJJ7osQyuCACb1SGB1Ah5gGevc5z6TFhTzTlWA1W3aiADyNpklgbuPWZQ6CvtxaGHbJTsPPqJnBWura3GqiKyiDQUE/fSXHGU3rZBtJpwV02MulZBqCMmQfN2qNdV4JjfDE782b4BSHsJ8wUbT59AJKyIrAqHB7tRDtWmU/CjBrKq7WlfJP4njx9CWDPgTi/tMfbzTKSuFF0bDqvl5O4qRuZA9IO9nbwqmZ88h0wq4scEfXD1OwUfe7RRfOkcH/EOfKdzEk8HRQIp2hUus5USLBMAE5DtOWZ7s7aynO7cuRMo1aCtsywqU1NX0lMmddMwgzkS6f8Dy6iMlh4/KZUAAAAASUVORK5CYII=;" vertex="1" parent="1">
          <mxGeometry x="150" y="388.37" width="128.53" height="142" as="geometry" />
        </mxCell>
        <mxCell id="j8tZx5eY9eRbHfg8dXLW-15" value="Screenshot" style="text;html=1;align=center;verticalAlign=middle;whiteSpace=wrap;rounded=0;" vertex="1" parent="1">
          <mxGeometry x="176.4" y="530.37" width="75.73" height="30" as="geometry" />
        </mxCell>
      </root>
    </mxGraphModel>
  </diagram>
</mxfile>
